<svg width="38" height="38" viewBox="0 0 38 38" fill="none" xmlns="http://www.w3.org/2000/svg">
<path d="M20.425 30.2218C20.0818 30.2218 19.9227 30.2123 19.6579 30.1957L18.9442 30.1518L18.7102 29.6221C15.7676 22.9413 15.7355 15.3674 18.6235 8.84446L18.8599 8.31127L19.4429 8.2804C19.7754 8.26258 20.1055 8.25427 20.425 8.25427C23.3344 8.25427 27.5155 8.67702 30.9082 10.6875C34.1489 12.6088 35.8625 15.5657 35.8625 19.2375C35.8625 22.8154 34.1513 25.7402 30.9142 27.6948C28.2162 29.3241 24.491 30.2218 20.425 30.2218ZM20.2207 28.3206C20.2801 28.3218 20.3454 28.3218 20.425 28.3218C26.67 28.3218 33.9625 25.9421 33.9625 19.2375C33.9625 16.2307 32.6087 13.9044 29.9392 12.3215C27.5809 10.9226 24.2024 10.1531 20.425 10.1531C20.3276 10.1531 20.229 10.1543 20.1293 10.1555C17.765 15.8923 17.7982 22.4461 20.2207 28.3206ZM3.20623 11.0437H14.4875C15.6334 11.0437 15.6358 9.26246 14.4875 9.26246H3.20623C2.06029 9.26246 2.05792 11.0437 3.20623 11.0437ZM3.20623 29.0937H14.8437C15.9897 29.0937 15.992 27.3125 14.8437 27.3125H3.20623C2.06029 27.3125 2.05792 29.0937 3.20623 29.0937ZM3.20623 15.5562H13.3C14.4459 15.5562 14.4483 13.775 13.3 13.775H3.20623C2.06029 13.775 2.05792 15.5562 3.20623 15.5562ZM3.20623 20.0687H12.1125C13.2584 20.0687 13.2608 18.2875 12.1125 18.2875H3.20623C2.06029 18.2875 2.05792 20.0687 3.20623 20.0687ZM3.20623 24.5812H13.3C14.4459 24.5812 14.4483 22.8 13.3 22.8H3.20623C2.06029 22.8 2.05792 24.5812 3.20623 24.5812Z" fill="#3A393C"/>
</svg>
