<svg width="38" height="38" viewBox="0 0 38 38" fill="none" xmlns="http://www.w3.org/2000/svg">
<path d="M13.0625 10.6875V13.0625H15.4375V15.4375H8.97987L6.93975 12.3939L6.56688 11.875H1.1875V18.6295L7.125 21.0045V29.6875H24.3806L24.7154 29.1674L35.0312 14.25H36.8125V11.875H32.8415L32.5446 12.0982L24.9375 17.8125V15.4375H17.8125V13.0625H20.1875V10.6875H13.0625ZM3.5625 14.25H5.27013L7.125 17.0335V18.4062L3.5625 16.9955V14.25ZM30.6149 16.5514L23.1562 27.3125H9.5V17.8125H22.5625V22.5625L24.4554 21.1518L30.6149 16.5514ZM35.0312 19C35.0312 19 33.25 22.173 33.25 23.1562C33.25 23.6287 33.4377 24.0817 33.7717 24.4158C34.1058 24.7498 34.5588 24.9375 35.0312 24.9375C35.5037 24.9375 35.9567 24.7498 36.2908 24.4158C36.6248 24.0817 36.8125 23.6287 36.8125 23.1562C36.8125 22.173 35.0312 19 35.0312 19Z" fill="#3A393C"/>
</svg>
