<svg width="38" height="38" viewBox="0 0 38 38" fill="none" xmlns="http://www.w3.org/2000/svg">
<g clip-path="url(#clip0_163_4184)">
<g filter="url(#filter0_d_163_4184)">
<path d="M19 3.16663C19.8399 3.16663 20.6453 3.50026 21.2392 4.09412C21.833 4.68799 22.1667 5.49344 22.1667 6.33329C22.1667 8.09079 20.7575 9.49996 19 9.49996C18.1602 9.49996 17.3547 9.16633 16.7608 8.57246C16.167 7.9786 15.8333 7.17314 15.8333 6.33329C15.8333 5.49344 16.167 4.68799 16.7608 4.09412C17.3547 3.50026 18.1602 3.16663 19 3.16663ZM19.6175 23.4175C21.8666 23.4087 24.1141 23.5409 26.3467 23.8133C26.4417 19.5066 26.0617 15.7066 25.3333 14.25C25.1275 13.8225 24.8425 13.4583 24.5417 13.1416L11.7642 24.0983C13.9175 23.75 16.625 23.4175 19.6175 23.4175ZM11.8117 26.9166C12.0175 29.6716 12.4292 32.4583 13.0942 34.8333H16.3717C15.9125 33.44 15.58 31.8091 15.3267 30.0833C15.3267 30.0833 19 29.3866 22.6733 30.0833C22.42 31.8091 22.0875 33.44 21.6283 34.8333H24.9058C25.6025 32.3791 26.0142 29.4658 26.22 26.5841C24.029 26.3208 21.8243 26.1887 19.6175 26.1883C16.5617 26.1883 13.9017 26.5208 11.8117 26.9166ZM19 11.0833C19 11.0833 14.25 11.0833 12.6667 14.25C12.1283 15.3266 11.78 17.6541 11.6692 20.52L22.04 11.6216C20.4725 11.0833 19 11.0833 19 11.0833ZM29.4025 8.97746L27.5975 6.87163L22.04 11.6375C22.9108 11.9383 23.8292 12.4133 24.5417 13.1416L29.4025 8.97746ZM32.7275 25.0641C32.585 25.0166 30.305 24.2725 26.3467 23.8133C26.3308 24.7158 26.2833 25.65 26.22 26.5841C29.7825 27.0275 31.825 27.7083 31.8567 27.7083L32.7275 25.0641ZM11.6692 20.52L5.43085 25.8716L6.84001 28.215C6.87168 28.1991 8.70835 27.4866 11.8117 26.9166C11.6375 24.6841 11.59 22.4833 11.6692 20.52Z" fill="#3A393C"/>
</g>
</g>
<defs>
<filter id="filter0_d_163_4184" x="1.43085" y="3.16663" width="35.2967" height="39.6666" filterUnits="userSpaceOnUse" color-interpolation-filters="sRGB">
<feFlood flood-opacity="0" result="BackgroundImageFix"/>
<feColorMatrix in="SourceAlpha" type="matrix" values="0 0 0 0 0 0 0 0 0 0 0 0 0 0 0 0 0 0 127 0" result="hardAlpha"/>
<feOffset dy="4"/>
<feGaussianBlur stdDeviation="2"/>
<feComposite in2="hardAlpha" operator="out"/>
<feColorMatrix type="matrix" values="0 0 0 0 0 0 0 0 0 0 0 0 0 0 0 0 0 0 0.25 0"/>
<feBlend mode="normal" in2="BackgroundImageFix" result="effect1_dropShadow_163_4184"/>
<feBlend mode="normal" in="SourceGraphic" in2="effect1_dropShadow_163_4184" result="shape"/>
</filter>
<clipPath id="clip0_163_4184">
<rect width="38" height="38" fill="white"/>
</clipPath>
</defs>
</svg>
