<svg width="38" height="38" viewBox="0 0 38 38" fill="none" xmlns="http://www.w3.org/2000/svg">
<path d="M26.9167 7.12496C26.9167 9.34163 25.175 11.0833 22.9583 11.0833C20.7417 11.0833 19 9.34163 19 7.12496C19 4.90829 20.7417 3.16663 22.9583 3.16663C25.175 3.16663 26.9167 4.90829 26.9167 7.12496ZM23.75 12.6666H22.4833C19.1583 12.6666 15.9917 10.7666 14.4083 7.75829C14.25 7.59996 14.0917 7.44163 14.0917 7.28329L11.2417 8.54996C12.0333 10.7666 14.5667 13.6166 18.2083 15.0416L15.3583 22.9583L9.18333 21.2166L4.75 29.925L7.91667 30.7166L10.7667 25.0166L17.8917 26.9166C19.475 27.2333 21.0583 26.4416 21.6917 25.0166L25.3333 14.8833C25.65 13.775 24.8583 12.6666 23.75 12.6666ZM29.925 11.0833L24.5417 25.9666C23.5917 28.5 21.2167 30.0833 18.6833 30.0833C18.2083 30.0833 17.575 30.0833 17.1 29.925L12.5083 28.6583L11.0833 31.5083L14.25 32.3L16.4667 32.9333C17.2583 33.0916 18.05 33.25 18.8417 33.25C22.8 33.25 26.2833 30.875 27.7083 27.075L33.25 11.0833H29.925Z" fill="#3A393C"/>
</svg>
