<svg width="38" height="38" viewBox="0 0 38 38" fill="none" xmlns="http://www.w3.org/2000/svg">
<path d="M17.4166 20.5833H20.5833V23.75H17.4166V20.5833ZM17.4166 7.91663H20.5833V17.4166H17.4166V7.91663ZM26.9166 7.53663C29.8616 9.80079 31.6666 13.6325 31.6666 17.4166C31.6646 19.6813 31.0554 21.9041 29.9026 23.8534C28.7497 25.8027 27.0953 27.4072 25.1116 28.5H12.8883C10.9046 27.4072 9.25024 25.8027 8.09737 23.8534C6.94449 21.9041 6.33532 19.6813 6.33329 17.4166C6.33329 13.6325 8.05913 9.76913 11.0833 7.53663V3.16663H7.91663V6.11163C4.98746 8.99329 3.16663 12.9833 3.16663 17.4166C3.16663 21.85 4.98746 25.84 7.91663 28.7216V34.8333H11.0833V31.6666H14.25V34.8333H17.4166V31.6666H20.5833V34.8333H23.75V31.6666H26.9166V34.8333H30.0833V28.7216C33.0125 25.84 34.8333 21.85 34.8333 17.4166C34.8333 12.9833 33.0125 8.99329 30.0833 6.11163V3.16663H26.9166V7.53663Z" fill="#3A393C"/>
</svg>
