<svg width="38" height="38" viewBox="0 0 38 38" fill="none" xmlns="http://www.w3.org/2000/svg">
<path d="M15.0417 17.4167H16.625C17.1 17.4167 17.4167 17.1 17.4167 16.625V14.25H30.0834V16.625C30.0834 17.1 30.4 17.4167 30.875 17.4167H32.4584C32.9334 17.4167 33.25 17.1 33.25 16.625V9.50004L31.0334 2.69171C30.875 2.05837 30.2417 1.58337 29.6084 1.58337H18.05C17.4167 1.58337 16.7834 2.05837 16.625 2.69171L14.25 9.50004V16.625C14.25 17.1 14.5667 17.4167 15.0417 17.4167ZM17.8917 3.16671H29.45L30.875 7.91671H16.4667L17.8917 3.16671ZM19 36.4167H15.8334C15.8334 35.15 12.825 34.0417 10.45 33.0917C7.12502 31.825 3.16669 30.4 3.16669 26.9167C3.16669 23.275 6.80835 22.325 9.81669 21.375C12.5084 20.7417 14.25 20.1084 14.25 19H17.4167C17.4167 22.6417 13.775 23.5917 10.7667 24.5417C8.07502 25.175 6.33335 25.8084 6.33335 26.9167C6.33335 28.1834 9.34169 29.2917 11.7167 30.2417C15.0417 31.5084 19 32.9334 19 36.4167ZM34.8334 36.4167H31.6667C31.6667 35.15 28.6584 34.0417 26.2834 33.0917C22.9584 31.825 19 30.4 19 26.9167C19 23.275 22.6417 22.325 25.65 21.375C28.1834 20.5834 30.0834 20.1084 30.0834 19H33.25C33.25 22.6417 29.6084 23.5917 26.6 24.5417C24.0667 25.175 22.1667 25.8084 22.1667 26.9167C22.1667 28.1834 25.175 29.2917 27.55 30.2417C30.875 31.5084 34.8334 32.9334 34.8334 36.4167Z" fill="#3A393C"/>
</svg>
