<svg width="38" height="38" viewBox="0 0 38 38" fill="none" xmlns="http://www.w3.org/2000/svg">
<path d="M19 4.75C11.0833 4.75 4.75 11.0833 4.75 19C4.75 26.9167 11.0833 33.25 19 33.25C26.9167 33.25 33.25 26.9167 33.25 19C33.25 11.0833 26.9167 4.75 19 4.75ZM19 30.0833C12.825 30.0833 7.91667 25.175 7.91667 19C7.91667 12.825 12.825 7.91667 19 7.91667C25.175 7.91667 30.0833 12.825 30.0833 19C30.0833 25.175 25.175 30.0833 19 30.0833ZM32.4583 32.4583C35.9417 28.975 38 24.225 38 19C38 13.775 35.9417 9.025 32.4583 5.54167L30.7167 7.28333C33.725 10.2917 35.625 14.4083 35.625 19C35.625 23.5917 33.725 27.7083 30.7167 30.7167L32.4583 32.4583ZM7.28333 30.7167C4.275 27.7083 2.375 23.5917 2.375 19C2.375 14.4083 4.275 10.2917 7.28333 7.28333L5.54167 5.54167C2.05833 9.025 0 13.775 0 19C0 24.225 2.05833 28.975 5.54167 32.4583L7.28333 30.7167Z" fill="#3A393C"/>
<path d="M12.4804 21.1766L12.121 22.375H11L12.9033 16.0496H14.4989L16.3798 22.375H15.2829L14.9184 21.1766H12.4804ZM13.7252 16.978H13.7114L12.7331 20.2568H14.6828" fill="#3A393C"/>
<path d="M16.6885 22.375L16.716 16.0496H19.5237C20.6292 16.0496 21.1863 16.3023 21.1794 17.695C21.1759 18.4205 21.0522 18.9088 20.3679 19.0928V19.1272C21.157 19.2303 21.3049 19.8115 21.2997 20.6127C21.2946 22.0122 20.7805 22.375 19.5924 22.375H16.6885ZM17.7768 21.3365H19.2589C19.9054 21.3365 20.2148 21.2867 20.2183 20.5112C20.22 19.8183 20.0876 19.6172 19.4463 19.6172H17.7837L17.7768 21.3365ZM17.7871 18.6991H19.3466C19.9552 18.6991 20.091 18.4859 20.0945 17.8119C20.0979 17.1379 19.8555 17.0863 19.3225 17.0863H17.7957" fill="#3A393C"/>
<path d="M22.7851 20.3569L22.7834 20.6509C22.7817 21.3764 23.0585 21.4263 24.0609 21.4263C25.0443 21.4263 25.1819 21.2251 25.1853 20.491C25.1905 19.59 24.7606 19.707 23.9165 19.6571C22.6992 19.5728 21.7346 19.6227 21.7432 17.7847C21.7518 16.0465 22.7301 15.9966 24.0832 15.9966C25.2352 15.9966 26.1757 16.0396 26.1688 17.7005V17.9034H25.0839V17.7005C25.089 17.0179 24.8397 16.9904 24.0798 16.9904C23.0035 16.9904 22.8298 17.109 22.8264 17.7847C22.8247 18.5602 22.9657 18.5842 24.0643 18.6616C25.8026 18.7802 26.2754 18.8817 26.2685 20.491C26.2616 22.2705 25.5086 22.4218 24.0557 22.4218C22.8075 22.4218 21.6933 22.4648 21.7002 20.6509L21.7019 20.3569" fill="#3A393C"/>
</svg>
