<svg width="842" height="552" viewBox="0 0 842 552" fill="none" xmlns="http://www.w3.org/2000/svg">
<path fill-rule="evenodd" clip-rule="evenodd" d="M358.731 700.501L417.505 0L418.502 0.0836109L359.728 700.585L358.731 700.501ZM398.567 3.52265L205.243 679.379L206.204 679.654L399.528 3.79767L398.567 3.52265ZM0.72998 604.072L369.219 4.77986L370.071 5.30364L1.58183 604.596L0.72998 604.072ZM50.7162 629.429L374.427 4.81147L375.315 5.2716L51.604 629.889L50.7162 629.429ZM384.414 4.8381L99.8274 648.224L100.742 648.629L385.329 5.24261L384.414 4.8381ZM148.53 664.577L392.899 4.86573L393.836 5.21307L149.468 664.925L148.53 664.577ZM250.783 689.815L404.802 3.93242L405.777 4.15152L251.759 690.034L250.783 689.815ZM409.165 9.14377L298.198 703.293L299.185 703.451L410.153 9.30163L409.165 9.14377ZM498.732 703.345L425.91 8.51515L426.905 8.4109L499.726 703.241L498.732 703.345ZM424.637 7.05371L405.714 709.762L404.714 709.735L423.638 7.02679L424.637 7.05371ZM435.398 2.86902L569.898 696.872L568.916 697.062L434.416 3.05928L435.398 2.86902ZM657.884 688.313L442.409 4.89262L441.455 5.19331L656.93 688.614L657.884 688.313ZM448.46 4.84567L725.868 664.77L724.946 665.157L447.538 5.23319L448.46 4.84567ZM789.848 633.731L456.348 8.72822L455.466 9.19899L788.966 634.202L789.848 633.731ZM463.831 2.69753L841.069 604.068L840.222 604.6L462.984 3.22893L463.831 2.69753Z" fill="url(#paint0_linear_163_4137)"/>
<defs>
<linearGradient id="paint0_linear_163_4137" x1="420.999" y1="-56" x2="420.671" y2="577.049" gradientUnits="userSpaceOnUse">
<stop stop-color="#2F2F2F" stop-opacity="0"/>
<stop offset="1" stop-color="#2F2F2F"/>
</linearGradient>
</defs>
</svg>
