<svg width="19" height="19" viewBox="0 0 19 19" fill="none" xmlns="http://www.w3.org/2000/svg">
<path d="M0.531738 18.1779C0.531738 17.7407 0.896724 17.3734 1.33123 17.3734H1.87002V2.47132C1.87002 1.04583 2.64344 0.25 4.06862 0.25H10.7861C12.2026 0.25 12.9934 1.03708 12.9934 2.47132V7.0014C14.4881 7.62232 15.0964 8.6805 15.0964 10.0448C15.0964 11.5315 14.8965 13.1056 14.8965 14.33C14.8965 15.1171 15.3658 15.5893 16.1044 15.5893C16.9474 15.5893 17.4167 14.9771 17.4167 13.8403C17.4167 12.2311 17.156 10.1847 16.6606 7.89342L15.0877 6.20557C14.7749 5.86451 14.7401 5.60215 14.9313 5.24359L15.6178 3.96677C15.6786 3.85308 15.6786 3.73064 15.6091 3.64319L14.4446 2.17397C13.958 1.5618 14.8444 0.897155 15.2963 1.47435L16.2087 2.61999C16.7128 3.24091 16.9735 3.94928 17.1473 4.79757L17.3211 5.61089C18.1119 9.3364 18.4942 11.7589 18.4942 13.8403C18.4942 15.6593 17.6339 16.6825 16.1044 16.6825C14.7053 16.6825 13.8103 15.773 13.8103 14.33C13.8103 12.9395 14.0101 11.3653 14.0101 10.0448C14.0101 9.29268 13.7147 8.65427 12.9934 8.217V17.3734H13.5235C13.9667 17.3734 14.3317 17.7407 14.3317 18.1779C14.3317 18.6327 13.9667 19 13.5235 19H1.33123C0.888034 19 0.531738 18.6327 0.531738 18.1779ZM4.39885 7.84095H10.4646C11.0294 7.84095 11.3944 7.51737 11.3944 6.99265V2.71618C11.3944 2.19146 11.0381 1.85914 10.4646 1.85914H4.39885C3.8253 1.85914 3.469 2.19146 3.469 2.71618V6.99265C3.469 7.51737 3.8253 7.84095 4.39885 7.84095Z" fill="#E7E8FF"/>
</svg>
