<svg width="25" height="24" viewBox="0 0 25 24" fill="none" xmlns="http://www.w3.org/2000/svg">
<mask id="mask0_2083_524" style="mask-type:alpha" maskUnits="userSpaceOnUse" x="0" y="0" width="25" height="24">
<rect x="0.531738" width="24" height="24" fill="#D9D9D9"/>
</mask>
<g mask="url(#mask0_2083_524)">
<path d="M3.53174 20.1779C3.53174 19.7407 3.89672 19.3734 4.33123 19.3734H4.87002V4.47132C4.87002 3.04583 5.64344 2.25 7.06862 2.25H13.7861C15.2026 2.25 15.9934 3.03708 15.9934 4.47132V9.0014C17.4881 9.62232 18.0964 10.6805 18.0964 12.0448C18.0964 13.5315 17.8965 15.1056 17.8965 16.33C17.8965 17.1171 18.3658 17.5893 19.1044 17.5893C19.9474 17.5893 20.4167 16.9771 20.4167 15.8403C20.4167 14.2311 20.156 12.1847 19.6606 9.89342L18.0877 8.20557C17.7749 7.86451 17.7401 7.60215 17.9313 7.24359L18.6178 5.96677C18.6786 5.85308 18.6786 5.73064 18.6091 5.64319L17.4446 4.17397C16.958 3.5618 17.8444 2.89715 18.2963 3.47435L19.2087 4.61999C19.7128 5.24091 19.9735 5.94928 20.1473 6.79757L20.3211 7.61089C21.1119 11.3364 21.4942 13.7589 21.4942 15.8403C21.4942 17.6593 20.6339 18.6825 19.1044 18.6825C17.7053 18.6825 16.8103 17.773 16.8103 16.33C16.8103 14.9395 17.0101 13.3653 17.0101 12.0448C17.0101 11.2927 16.7147 10.6543 15.9934 10.217V19.3734H16.5235C16.9667 19.3734 17.3317 19.7407 17.3317 20.1779C17.3317 20.6327 16.9667 21 16.5235 21H4.33123C3.88803 21 3.53174 20.6327 3.53174 20.1779ZM7.39885 9.84095H13.4646C14.0294 9.84095 14.3944 9.51737 14.3944 8.99265V4.71618C14.3944 4.19146 14.0381 3.85914 13.4646 3.85914H7.39885C6.8253 3.85914 6.469 4.19146 6.469 4.71618V8.99265C6.469 9.51737 6.8253 9.84095 7.39885 9.84095Z" fill="#E7E8FF"/>
</g>
</svg>
