<svg width="541" height="541" viewBox="0 0 541 541" fill="none" xmlns="http://www.w3.org/2000/svg">
<g clip-path="url(#clip0_2135_2660)">
<g filter="url(#filter0_d_2135_2660)">
<circle cx="270.818" cy="270.289" r="270.446" fill="#0A0A0A"/>
<circle cx="270.818" cy="270.289" r="269.991" stroke="#2B2B2B" stroke-width="0.909061"/>
</g>
<line x1="269.384" y1="270.802" x2="77.2191" y2="430.725" stroke="url(#paint0_linear_2135_2660)" stroke-width="0.909111"/>
<line x1="269.363" y1="270.916" x2="52.3468" y2="395.04" stroke="url(#paint1_linear_2135_2660)" stroke-width="0.909111"/>
<line x1="269.346" y1="270.962" x2="42.3382" y2="375.699" stroke="url(#paint2_linear_2135_2660)" stroke-width="0.909111"/>
<line x1="269.376" y1="270.869" x2="64.0039" y2="413.435" stroke="url(#paint3_linear_2135_2660)" stroke-width="0.909111"/>
<line x1="269.325" y1="271.012" x2="34.052" y2="355.566" stroke="url(#paint4_linear_2135_2660)" stroke-width="0.909111"/>
<line x1="269.299" y1="271.061" x2="27.5519" y2="334.787" stroke="url(#paint5_linear_2135_2660)" stroke-width="0.909111"/>
<line x1="269.268" y1="271.117" x2="22.8867" y2="313.532" stroke="url(#paint6_linear_2135_2660)" stroke-width="0.909111"/>
<line x1="269.234" y1="271.162" x2="20.0932" y2="291.942" stroke="url(#paint7_linear_2135_2660)" stroke-width="0.909111"/>
<line x1="269.195" y1="271.203" x2="19.1921" y2="270.19" stroke="url(#paint8_linear_2135_2660)" stroke-width="0.909111"/>
<line x1="269.155" y1="271.242" x2="20.1916" y2="248.443" stroke="url(#paint9_linear_2135_2660)" stroke-width="0.909111"/>
<line x1="269.109" y1="271.271" x2="23.0793" y2="226.86" stroke="url(#paint10_linear_2135_2660)" stroke-width="0.909111"/>
<line x1="269.063" y1="271.297" x2="27.8402" y2="205.612" stroke="url(#paint11_linear_2135_2660)" stroke-width="0.909111"/>
<line x1="269.013" y1="271.325" x2="34.4332" y2="184.867" stroke="url(#paint12_linear_2135_2660)" stroke-width="0.909111"/>
<line x1="268.962" y1="271.348" x2="42.8097" y2="164.773" stroke="url(#paint13_linear_2135_2660)" stroke-width="0.909111"/>
<line x1="268.907" y1="271.368" x2="52.9047" y2="145.489" stroke="url(#paint14_linear_2135_2660)" stroke-width="0.909111"/>
<line x1="268.853" y1="271.374" x2="64.6433" y2="127.148" stroke="url(#paint15_linear_2135_2660)" stroke-width="0.909111"/>
<line x1="268.798" y1="271.385" x2="77.9353" y2="109.91" stroke="url(#paint16_linear_2135_2660)" stroke-width="0.909111"/>
<line x1="268.742" y1="271.388" x2="92.6791" y2="93.8922" stroke="url(#paint17_linear_2135_2660)" stroke-width="0.909111"/>
<line x1="268.686" y1="271.383" x2="108.763" y2="79.2178" stroke="url(#paint18_linear_2135_2660)" stroke-width="0.909111"/>
<line x1="268.631" y1="271.375" x2="126.065" y2="66.0026" stroke="url(#paint19_linear_2135_2660)" stroke-width="0.909111"/>
<line x1="268.576" y1="271.363" x2="144.452" y2="54.3475" stroke="url(#paint20_linear_2135_2660)" stroke-width="0.909111"/>
<line x1="268.523" y1="271.337" x2="163.785" y2="44.3285" stroke="url(#paint21_linear_2135_2660)" stroke-width="0.909111"/>
<line x1="268.472" y1="271.323" x2="183.918" y2="36.0501" stroke="url(#paint22_linear_2135_2660)" stroke-width="0.909111"/>
<line x1="268.423" y1="271.305" x2="204.696" y2="29.5579" stroke="url(#paint23_linear_2135_2660)" stroke-width="0.909111"/>
<line x1="268.375" y1="271.274" x2="225.96" y2="24.8927" stroke="url(#paint24_linear_2135_2660)" stroke-width="0.909111"/>
<line x1="268.331" y1="271.238" x2="247.552" y2="22.0972" stroke="url(#paint25_linear_2135_2660)" stroke-width="0.909111"/>
<line x1="268.291" y1="271.196" x2="269.304" y2="21.1922" stroke="url(#paint26_linear_2135_2660)" stroke-width="0.909111"/>
<line x1="268.252" y1="271.155" x2="291.051" y2="22.1916" stroke="url(#paint27_linear_2135_2660)" stroke-width="0.909111"/>
<line x1="268.22" y1="271.117" x2="312.63" y2="25.0872" stroke="url(#paint28_linear_2135_2660)" stroke-width="0.909111"/>
<line x1="268.19" y1="271.063" x2="333.874" y2="29.8403" stroke="url(#paint29_linear_2135_2660)" stroke-width="0.909111"/>
<line x1="268.165" y1="271.009" x2="354.624" y2="36.4294" stroke="url(#paint30_linear_2135_2660)" stroke-width="0.909111"/>
<line x1="268.144" y1="270.956" x2="374.719" y2="44.8039" stroke="url(#paint31_linear_2135_2660)" stroke-width="0.909111"/>
<line x1="268.127" y1="270.911" x2="394.007" y2="54.9083" stroke="url(#paint32_linear_2135_2660)" stroke-width="0.909111"/>
<line x1="268.116" y1="270.854" x2="412.342" y2="66.644" stroke="url(#paint33_linear_2135_2660)" stroke-width="0.909111"/>
<line x1="268.109" y1="270.795" x2="429.584" y2="79.933" stroke="url(#paint34_linear_2135_2660)" stroke-width="0.909111"/>
<line x1="268.108" y1="270.743" x2="445.603" y2="94.6806" stroke="url(#paint35_linear_2135_2660)" stroke-width="0.909111"/>
<line x1="268.111" y1="270.684" x2="460.276" y2="110.761" stroke="url(#paint36_linear_2135_2660)" stroke-width="0.909111"/>
<line x1="268.117" y1="270.633" x2="473.489" y2="128.067" stroke="url(#paint37_linear_2135_2660)" stroke-width="0.909111"/>
<line x1="268.13" y1="270.578" x2="485.146" y2="146.454" stroke="url(#paint38_linear_2135_2660)" stroke-width="0.909111"/>
<line x1="268.147" y1="270.516" x2="494.729" y2="164.859" stroke="url(#paint39_linear_2135_2660)" stroke-width="0.909111"/>
<line x1="268.169" y1="270.469" x2="503.097" y2="184.962" stroke="url(#paint40_linear_2135_2660)" stroke-width="0.909111"/>
<line x1="268.194" y1="270.422" x2="509.681" y2="205.716" stroke="url(#paint41_linear_2135_2660)" stroke-width="0.909111"/>
<line x1="268.225" y1="270.376" x2="514.432" y2="226.963" stroke="url(#paint42_linear_2135_2660)" stroke-width="0.909111"/>
<line x1="268.259" y1="270.334" x2="517.313" y2="248.545" stroke="url(#paint43_linear_2135_2660)" stroke-width="0.909111"/>
<line x1="268.296" y1="270.296" x2="518.302" y2="270.296" stroke="url(#paint44_linear_2135_2660)" stroke-width="0.909111"/>
<line x1="268.338" y1="270.254" x2="517.392" y2="292.044" stroke="url(#paint45_linear_2135_2660)" stroke-width="0.909111"/>
<line x1="268.383" y1="270.222" x2="514.59" y2="313.635" stroke="url(#paint46_linear_2135_2660)" stroke-width="0.909111"/>
<line x1="268.43" y1="270.186" x2="509.916" y2="334.892" stroke="url(#paint47_linear_2135_2660)" stroke-width="0.909111"/>
<line x1="268.479" y1="270.163" x2="503.407" y2="355.67" stroke="url(#paint48_linear_2135_2660)" stroke-width="0.909111"/>
<line x1="268.531" y1="270.146" x2="495.113" y2="375.803" stroke="url(#paint49_linear_2135_2660)" stroke-width="0.909111"/>
<line x1="268.585" y1="270.124" x2="485.096" y2="395.126" stroke="url(#paint50_linear_2135_2660)" stroke-width="0.909111"/>
<line x1="268.639" y1="270.115" x2="473.431" y2="413.512" stroke="url(#paint51_linear_2135_2660)" stroke-width="0.909111"/>
<line x1="268.694" y1="270.108" x2="460.209" y2="430.808" stroke="url(#paint52_linear_2135_2660)" stroke-width="0.909111"/>
<path d="M267.4 21.5543C267.215 20.446 268.07 19.4371 269.193 19.4371H271.264C272.388 19.4371 273.242 20.446 273.058 21.5543L271.816 29.0014C271.687 29.7776 271.016 30.3465 270.229 30.3465C269.442 30.3465 268.77 29.7776 268.641 29.0014L267.4 21.5543Z" fill="white"/>
<path d="M519.16 267.322C520.22 267.233 521.129 268.07 521.129 269.134V271.545C521.129 272.609 520.22 273.446 519.16 273.357L500.67 271.817C499.902 271.753 499.311 271.11 499.311 270.34C499.311 269.569 499.902 268.927 500.67 268.863L519.16 267.322Z" fill="white"/>
<path d="M20.8428 273.361C19.7827 273.449 18.8735 272.613 18.8735 271.549L18.8735 269.137C18.8735 268.073 19.7827 267.237 20.8428 267.325L39.3332 268.866C40.1014 268.93 40.6922 269.572 40.6922 270.343C40.6922 271.114 40.1014 271.756 39.3332 271.82L20.8428 273.361Z" fill="white"/>
<path d="M505.18 352.641C506.206 352.92 506.774 354.017 506.41 355.017L505.586 357.283C505.222 358.283 504.081 358.758 503.115 358.312L486.267 350.54C485.567 350.217 485.232 349.412 485.495 348.687C485.759 347.963 486.534 347.562 487.277 347.764L505.18 352.641Z" fill="white"/>
<path d="M34.8493 187.875C33.823 187.595 33.2548 186.498 33.6186 185.498L34.4434 183.232C34.8073 182.233 35.9477 181.757 36.9136 182.203L53.762 189.975C54.4619 190.298 54.7975 191.103 54.5339 191.828C54.2702 192.552 53.4954 192.953 52.7517 192.751L34.8493 187.875Z" fill="white"/>
<path d="M484.935 396.043C485.98 396.455 486.405 397.708 485.826 398.671L484.759 400.446C484.181 401.409 482.876 401.622 482.021 400.893L476.277 395.993C475.678 395.483 475.536 394.614 475.942 393.94C476.347 393.265 477.18 392.982 477.912 393.271L484.935 396.043Z" fill="white"/>
<path d="M55.133 144.392C54.0879 143.98 53.6633 142.728 54.242 141.765L55.3087 139.989C55.8873 139.026 57.1923 138.813 58.0471 139.542L63.7913 144.442C64.39 144.953 64.5317 145.821 64.1265 146.496C63.7212 147.17 62.8876 147.453 62.1557 147.164L55.133 144.392Z" fill="white"/>
<path d="M462.861 428.033C463.73 428.647 463.889 429.872 463.205 430.687L461.655 432.534C460.971 433.349 459.737 433.406 458.982 432.657L445.808 419.591C445.261 419.048 445.221 418.176 445.716 417.586C446.212 416.995 447.077 416.883 447.706 417.328L462.861 428.033Z" fill="white"/>
<path d="M77.2496 112.337C76.3808 111.723 76.222 110.498 76.9058 109.683L78.456 107.835C79.1398 107.021 80.3739 106.964 81.1292 107.713L94.3033 120.779C94.8506 121.322 94.8904 122.193 94.395 122.784C93.8995 123.374 93.0342 123.486 92.4046 123.042L77.2496 112.337Z" fill="white"/>
<path d="M107.856 81.2338C107.002 80.5036 107.008 79.1814 107.869 78.4592L109.455 77.1279C110.316 76.4057 111.619 76.6292 112.19 77.5969L116.026 84.0995C116.426 84.7773 116.277 85.6448 115.674 86.1506C115.072 86.6564 114.192 86.6523 113.593 86.1408L107.856 81.2338Z" fill="white"/>
<path d="M142.923 55.865C142.316 54.9912 142.586 53.7855 143.508 53.2537L145.596 52.0478C146.517 51.516 147.696 51.885 148.15 52.8472L156.061 69.6309C156.389 70.3281 156.129 71.1609 155.461 71.5463C154.794 71.9316 153.942 71.741 153.503 71.1078L142.923 55.865Z" fill="white"/>
<path d="M182.326 37.1062C181.774 36.1279 182.232 34.8876 183.287 34.5033L185.234 33.795C186.289 33.4107 187.438 34.0664 187.643 35.171L189.024 42.5935C189.168 43.3671 188.731 44.1314 187.992 44.4006C187.252 44.6697 186.427 44.3648 186.04 43.6797L182.326 37.1062Z" fill="white"/>
<path d="M223.953 25.2681C223.681 24.2394 224.347 23.1988 225.395 23.0141L227.77 22.5953C228.818 22.4106 229.799 23.1607 229.896 24.22L231.59 42.6971C231.66 43.4647 231.13 44.1581 230.371 44.2919C229.612 44.4258 228.877 43.9554 228.681 43.2101L223.953 25.2681Z" fill="white"/>
<path d="M515.724 310.755C516.847 310.766 517.692 311.783 517.497 312.889L517.138 314.929C516.942 316.035 515.8 316.702 514.741 316.327L507.623 313.812C506.881 313.55 506.437 312.79 506.574 312.015C506.71 311.24 507.387 310.677 508.174 310.685L515.724 310.755Z" fill="white"/>
<path d="M24.2856 229.843C23.1621 229.832 22.317 228.815 22.5121 227.709L22.8718 225.669C23.0669 224.563 24.2088 223.896 25.2682 224.27L32.3866 226.786C33.1285 227.048 33.5722 227.808 33.4355 228.583C33.2989 229.358 32.622 229.921 31.8351 229.913L24.2856 229.843Z" fill="white"/>
<path d="M310.484 24.6635C310.581 23.6042 311.563 22.8541 312.611 23.0389L314.986 23.4576C316.033 23.6424 316.699 24.683 316.428 25.7116L311.7 43.6536C311.503 44.3989 310.768 44.8693 310.009 44.7354C309.25 44.6016 308.72 43.9082 308.791 43.1407L310.484 24.6635Z" fill="white"/>
<path d="M352.659 35.5866C352.865 34.482 354.013 33.8263 355.069 34.2105L357.015 34.9189C358.071 35.3032 358.529 36.5435 357.976 37.5218L354.263 44.0952C353.876 44.7804 353.05 45.0853 352.311 44.8161C351.571 44.547 351.135 43.7827 351.279 43.0091L352.659 35.5866Z" fill="white"/>
<path d="M392.081 53.247C392.535 52.2848 393.714 51.9157 394.635 52.4476L396.724 53.6534C397.645 54.1853 397.915 55.3909 397.308 56.2648L386.728 71.5076C386.289 72.1408 385.437 72.3314 384.77 71.946C384.102 71.5606 383.842 70.7279 384.17 70.0307L392.081 53.247Z" fill="white"/>
<path d="M458.982 108.019C459.737 107.269 460.971 107.326 461.655 108.141L463.205 109.988C463.889 110.803 463.73 112.028 462.862 112.642L447.707 123.347C447.077 123.792 446.212 123.68 445.716 123.089C445.221 122.499 445.261 121.627 445.808 121.084L458.982 108.019Z" fill="white"/>
<path d="M81.1279 432.954C80.3727 433.703 79.1385 433.647 78.4547 432.832L76.9045 430.985C76.2208 430.17 76.3795 428.944 77.2483 428.331L92.4033 417.626C93.0329 417.181 93.8982 417.293 94.3937 417.884C94.8892 418.474 94.8493 419.346 94.302 419.888L81.1279 432.954Z" fill="white"/>
<path d="M427.977 77.9379C428.548 76.9702 429.851 76.7467 430.712 77.4689L432.299 78.8001C433.159 79.5224 433.166 80.8445 432.312 81.5748L426.574 86.4818C425.976 86.9932 425.096 86.9974 424.493 86.4915C423.89 85.9857 423.741 85.1182 424.141 84.4405L427.977 77.9379Z" fill="white"/>
<path d="M514.741 224.346C515.801 223.972 516.943 224.639 517.138 225.745L517.497 227.785C517.692 228.891 516.847 229.908 515.724 229.919L508.174 229.989C507.387 229.997 506.711 229.434 506.574 228.659C506.437 227.884 506.881 227.124 507.623 226.862L514.741 224.346Z" fill="white"/>
<path d="M25.2682 316.408C24.2089 316.783 23.0669 316.116 22.8718 315.01L22.5122 312.97C22.3171 311.864 23.1622 310.847 24.2857 310.836L31.8352 310.765C32.622 310.758 33.2989 311.321 33.4356 312.096C33.5722 312.871 33.1286 313.631 32.3866 313.893L25.2682 316.408Z" fill="white"/>
<path d="M484.267 143.493C485.135 142.779 486.436 143.015 486.998 143.988L488.033 145.781C488.595 146.754 488.149 147.999 487.097 148.393L480.027 151.042C479.29 151.318 478.461 151.021 478.068 150.339C477.674 149.658 477.831 148.791 478.439 148.291L484.267 143.493Z" fill="white"/>
<path d="M55.7974 397.405C54.93 398.119 53.629 397.884 53.0672 396.911L52.0317 395.117C51.4699 394.144 51.9163 392.899 52.9684 392.505L60.0384 389.857C60.7753 389.581 61.6037 389.878 61.9972 390.559C62.3906 391.241 62.2337 392.107 61.6262 392.607L55.7974 397.405Z" fill="white"/>
<path d="M503.116 182.364C504.082 181.918 505.223 182.394 505.587 183.393L506.411 185.659C506.775 186.659 506.207 187.756 505.181 188.036L487.278 192.912C486.535 193.114 485.76 192.713 485.496 191.989C485.233 191.264 485.568 190.459 486.268 190.136L503.116 182.364Z" fill="white"/>
<path d="M36.916 358.482C35.9501 358.928 34.8097 358.452 34.4459 357.453L33.621 355.187C33.2572 354.187 33.8254 353.09 34.8517 352.81L52.7541 347.934C53.4978 347.732 54.2726 348.133 54.5363 348.857C54.7999 349.582 54.4643 350.387 53.7644 350.71L36.916 358.482Z" fill="white"/>
<path d="M105.609 408.996C105.609 408.869 105.637 408.469 105.691 407.796C105.746 407.124 105.864 406.324 106.046 405.397C106.246 404.469 106.527 403.488 106.891 402.451C107.273 401.397 107.791 400.424 108.446 399.533C109.1 398.642 109.909 397.906 110.873 397.324C111.855 396.742 113.036 396.451 114.418 396.451C116.454 396.451 117.9 397.088 118.754 398.36C119.627 399.633 120.063 401.433 120.063 403.76C120.063 404.16 120.018 404.751 119.927 405.533C119.836 406.297 119.672 407.142 119.436 408.069C119.218 408.996 118.9 409.951 118.482 410.933C118.063 411.915 117.527 412.805 116.873 413.605C116.236 414.387 115.454 415.033 114.527 415.542C113.6 416.051 112.509 416.305 111.255 416.305C110.236 416.305 109.364 416.133 108.636 415.787C107.927 415.423 107.346 414.924 106.891 414.287C106.455 413.633 106.127 412.86 105.909 411.969C105.709 411.078 105.609 410.087 105.609 408.996ZM116.954 402.86C116.954 402.369 116.909 401.897 116.818 401.442C116.727 400.969 116.573 400.56 116.354 400.215C116.136 399.851 115.836 399.569 115.454 399.369C115.091 399.151 114.627 399.042 114.064 399.042C113.409 399.042 112.818 399.242 112.291 399.642C111.782 400.024 111.327 400.533 110.927 401.169C110.527 401.806 110.182 402.524 109.891 403.324C109.618 404.106 109.391 404.906 109.209 405.724C109.046 406.524 108.918 407.296 108.827 408.042C108.755 408.769 108.718 409.387 108.718 409.896C108.718 410.387 108.764 410.869 108.855 411.342C108.946 411.796 109.1 412.205 109.318 412.569C109.536 412.914 109.827 413.196 110.191 413.414C110.573 413.614 111.045 413.714 111.609 413.714C112.264 413.714 112.845 413.524 113.354 413.142C113.882 412.742 114.345 412.224 114.745 411.587C115.145 410.951 115.482 410.242 115.754 409.46C116.045 408.66 116.273 407.86 116.436 407.06C116.618 406.242 116.745 405.469 116.818 404.742C116.909 403.997 116.954 403.369 116.954 402.86Z" fill="white"/>
<path d="M85.4933 348.68H72.2391C72.4937 347.081 73.0664 345.69 73.9573 344.508C74.8663 343.326 76.0027 342.326 77.3663 341.508C78.0753 341.072 78.8026 340.626 79.548 340.172C80.3116 339.699 81.0843 339.226 81.8661 338.754C82.6479 338.281 83.2842 337.717 83.7751 337.063C84.2842 336.408 84.5387 335.545 84.5387 334.472C84.5387 334.035 84.4478 333.654 84.266 333.326C84.1024 332.981 83.8751 332.699 83.5842 332.481C83.3115 332.245 82.9842 332.072 82.6024 331.963C82.2206 331.854 81.8297 331.799 81.4298 331.799C80.8298 331.799 80.2934 331.917 79.8207 332.154C79.348 332.372 78.9389 332.681 78.5935 333.081C78.2662 333.463 78.0026 333.926 77.8026 334.472C77.6208 334.999 77.5117 335.572 77.4753 336.19H74.53C74.6209 335.154 74.8391 334.208 75.1845 333.354C75.5299 332.481 76.0027 331.745 76.6026 331.145C77.2026 330.527 77.9299 330.054 78.7844 329.727C79.6389 329.381 80.6116 329.208 81.7025 329.208C82.5388 329.208 83.3115 329.317 84.0206 329.536C84.7478 329.754 85.3751 330.081 85.9023 330.517C86.4478 330.954 86.875 331.508 87.1841 332.181C87.4932 332.854 87.6477 333.636 87.6477 334.526C87.6477 335.581 87.4386 336.499 87.0205 337.281C86.6205 338.063 86.0841 338.763 85.4114 339.381C84.7569 339.981 84.0115 340.535 83.1752 341.044C82.357 341.535 81.5298 342.026 80.6934 342.517C79.8753 343.008 79.0844 343.526 78.3208 344.072C77.5572 344.599 76.9208 345.208 76.4117 345.899H86.0932L85.4933 348.68ZM88.4295 341.753C88.4295 341.626 88.4567 341.226 88.5113 340.553C88.5658 339.881 88.684 339.081 88.8658 338.154C89.0658 337.226 89.3476 336.245 89.7112 335.208C90.093 334.154 90.6112 333.181 91.2657 332.29C91.9202 331.399 92.7293 330.663 93.6929 330.081C94.6747 329.499 95.8565 329.208 97.2383 329.208C99.2746 329.208 100.72 329.845 101.574 331.117C102.447 332.39 102.884 334.19 102.884 336.517C102.884 336.917 102.838 337.508 102.747 338.29C102.656 339.054 102.493 339.899 102.256 340.826C102.038 341.753 101.72 342.708 101.302 343.69C100.884 344.672 100.347 345.562 99.6927 346.362C99.0564 347.144 98.2746 347.79 97.3473 348.299C96.4201 348.808 95.3292 349.062 94.0747 349.062C93.0566 349.062 92.1839 348.89 91.4566 348.544C90.7476 348.18 90.1658 347.68 89.7112 347.044C89.2749 346.39 88.9476 345.617 88.7294 344.726C88.5295 343.835 88.4295 342.844 88.4295 341.753ZM99.7745 335.617C99.7745 335.126 99.7291 334.654 99.6382 334.199C99.5473 333.726 99.3927 333.317 99.1746 332.972C98.9564 332.608 98.6564 332.326 98.2746 332.126C97.911 331.908 97.4473 331.799 96.8837 331.799C96.2292 331.799 95.6383 331.999 95.1111 332.399C94.602 332.781 94.1474 333.29 93.7475 333.926C93.3475 334.563 93.002 335.281 92.7111 336.081C92.4384 336.863 92.2111 337.663 92.0293 338.481C91.8657 339.281 91.7384 340.053 91.6475 340.799C91.5748 341.526 91.5384 342.144 91.5384 342.653C91.5384 343.144 91.5839 343.626 91.6748 344.099C91.7657 344.553 91.9202 344.962 92.1384 345.326C92.3566 345.671 92.6475 345.953 93.0111 346.171C93.3929 346.371 93.8656 346.471 94.4293 346.471C95.0838 346.471 95.6656 346.281 96.1747 345.899C96.7019 345.499 97.1655 344.981 97.5655 344.344C97.9655 343.708 98.3019 342.999 98.5746 342.217C98.8655 341.417 99.0927 340.617 99.2564 339.817C99.4382 338.999 99.5655 338.226 99.6382 337.499C99.7291 336.754 99.7745 336.126 99.7745 335.617Z" fill="white"/>
<path d="M71.4297 278.78H68.8388L67.8843 283.307H64.7753L65.7298 278.78H57.5483L58.1483 275.78L68.7843 264.217H71.8933L69.357 276.325H71.9478L71.4297 278.78ZM68.0207 268.335H67.9661L60.5755 276.325H66.248L68.0207 268.335ZM72.975 276.38C72.975 276.253 73.0023 275.853 73.0568 275.18C73.1113 274.507 73.2295 273.707 73.4113 272.78C73.6113 271.853 73.8931 270.871 74.2568 269.835C74.6386 268.78 75.1567 267.807 75.8113 266.916C76.4658 266.026 77.2748 265.289 78.2384 264.707C79.2202 264.126 80.402 263.835 81.7838 263.835C83.8201 263.835 85.2655 264.471 86.12 265.744C86.9927 267.016 87.4291 268.816 87.4291 271.144C87.4291 271.544 87.3836 272.134 87.2927 272.916C87.2018 273.68 87.0382 274.525 86.8018 275.453C86.5836 276.38 86.2655 277.334 85.8473 278.316C85.4291 279.298 84.8928 280.189 84.2383 280.989C83.6019 281.771 82.8201 282.416 81.8929 282.925C80.9656 283.434 79.8748 283.689 78.6203 283.689C77.6021 283.689 76.7294 283.516 76.0022 283.17C75.2931 282.807 74.7113 282.307 74.2568 281.671C73.8204 281.016 73.4932 280.243 73.275 279.352C73.075 278.462 72.975 277.471 72.975 276.38ZM84.3201 270.244C84.3201 269.753 84.2746 269.28 84.1837 268.825C84.0928 268.353 83.9383 267.944 83.7201 267.598C83.5019 267.235 83.2019 266.953 82.8201 266.753C82.4565 266.535 81.9929 266.426 81.4293 266.426C80.7747 266.426 80.1838 266.626 79.6566 267.026C79.1475 267.407 78.693 267.916 78.293 268.553C77.893 269.189 77.5476 269.907 77.2567 270.707C76.9839 271.489 76.7567 272.289 76.5749 273.107C76.4112 273.907 76.284 274.68 76.1931 275.425C76.1203 276.153 76.084 276.771 76.084 277.28C76.084 277.771 76.1294 278.252 76.2203 278.725C76.3112 279.18 76.4658 279.589 76.684 279.952C76.9021 280.298 77.193 280.58 77.5567 280.798C77.9385 280.998 78.4112 281.098 78.9748 281.098C79.6293 281.098 80.2111 280.907 80.7202 280.525C81.2474 280.125 81.7111 279.607 82.1111 278.971C82.511 278.334 82.8474 277.625 83.1201 276.843C83.411 276.043 83.6383 275.243 83.8019 274.443C83.9837 273.625 84.111 272.853 84.1837 272.125C84.2746 271.38 84.3201 270.753 84.3201 270.244Z" fill="white"/>
<path d="M76.3479 207.316C76.9843 207.316 77.5388 207.189 78.0115 206.934C78.5024 206.661 78.9115 206.316 79.2387 205.898C79.566 205.461 79.8115 204.97 79.9751 204.425C80.1387 203.88 80.2205 203.334 80.2205 202.789C80.2205 201.807 79.9478 201.007 79.4024 200.389C78.8569 199.752 78.057 199.434 77.0025 199.434C76.3661 199.434 75.8025 199.552 75.3116 199.789C74.8207 200.007 74.4116 200.316 74.0844 200.716C73.7571 201.116 73.5026 201.58 73.3208 202.107C73.1571 202.616 73.0753 203.171 73.0753 203.771C73.0753 204.261 73.148 204.725 73.2935 205.161C73.4389 205.58 73.648 205.952 73.9207 206.28C74.1935 206.589 74.5298 206.843 74.9298 207.043C75.348 207.225 75.8207 207.316 76.3479 207.316ZM81.5296 195.262C81.5296 194.444 81.3023 193.807 80.8478 193.353C80.4114 192.88 79.8024 192.644 79.0206 192.644C78.1842 192.644 77.4661 192.835 76.8661 193.216C76.2661 193.598 75.748 194.089 75.3116 194.689C74.8934 195.289 74.5389 195.953 74.248 196.68C73.9753 197.407 73.748 198.107 73.5662 198.78L73.6208 198.834C74.148 198.18 74.7571 197.707 75.448 197.416C76.157 197.125 76.9206 196.98 77.7388 196.98C78.6479 196.98 79.4478 197.134 80.1387 197.443C80.8478 197.734 81.4387 198.143 81.9114 198.671C82.3841 199.198 82.7386 199.825 82.975 200.552C83.2113 201.28 83.3295 202.071 83.3295 202.925C83.3295 203.907 83.1477 204.825 82.7841 205.68C82.4386 206.534 81.9568 207.279 81.3387 207.916C80.7387 208.534 80.0296 209.025 79.2115 209.389C78.4115 209.734 77.557 209.907 76.6479 209.907C75.448 209.907 74.4207 209.734 73.5662 209.389C72.7299 209.025 72.039 208.516 71.4935 207.861C70.9663 207.207 70.5754 206.407 70.3209 205.461C70.0845 204.498 69.9663 203.416 69.9663 202.216C69.9663 201.998 69.9936 201.552 70.0481 200.88C70.1027 200.189 70.23 199.389 70.4299 198.48C70.6299 197.571 70.9208 196.625 71.3026 195.644C71.7026 194.662 72.239 193.753 72.9117 192.916C73.5844 192.08 74.4207 191.398 75.4207 190.871C76.4207 190.326 77.6297 190.053 79.0478 190.053C79.866 190.053 80.6114 190.171 81.2841 190.407C81.9568 190.625 82.5386 190.953 83.0295 191.389C83.5204 191.825 83.9022 192.371 84.175 193.025C84.4658 193.68 84.6204 194.425 84.6386 195.262H81.5296ZM84.793 202.598C84.793 202.471 84.8203 202.071 84.8749 201.398C84.9294 200.725 85.0476 199.925 85.2294 198.998C85.4294 198.071 85.7112 197.089 86.0748 196.053C86.4566 194.998 86.9748 194.025 87.6293 193.134C88.2838 192.244 89.0929 191.507 90.0565 190.925C91.0383 190.344 92.2201 190.053 93.6018 190.053C95.6381 190.053 97.0835 190.689 97.9381 191.962C98.8108 193.234 99.2471 195.034 99.2471 197.362C99.2471 197.762 99.2017 198.353 99.1108 199.134C99.0198 199.898 98.8562 200.743 98.6199 201.671C98.4017 202.598 98.0835 203.552 97.6653 204.534C97.2472 205.516 96.7108 206.407 96.0563 207.207C95.42 207.989 94.6382 208.634 93.7109 209.143C92.7837 209.652 91.6928 209.907 90.4383 209.907C89.4202 209.907 88.5475 209.734 87.8202 209.389C87.1111 209.025 86.5293 208.525 86.0748 207.889C85.6385 207.234 85.3112 206.461 85.093 205.57C84.893 204.68 84.793 203.689 84.793 202.598ZM96.1381 196.462C96.1381 195.971 96.0927 195.498 96.0018 195.044C95.9109 194.571 95.7563 194.162 95.5381 193.816C95.32 193.453 95.02 193.171 94.6382 192.971C94.2745 192.753 93.8109 192.644 93.2473 192.644C92.5928 192.644 92.0019 192.844 91.4746 193.244C90.9656 193.625 90.511 194.134 90.111 194.771C89.7111 195.407 89.3656 196.125 89.0747 196.925C88.802 197.707 88.5747 198.507 88.3929 199.325C88.2293 200.125 88.102 200.898 88.0111 201.643C87.9384 202.371 87.902 202.989 87.902 203.498C87.902 203.989 87.9475 204.47 88.0384 204.943C88.1293 205.398 88.2838 205.807 88.502 206.17C88.7202 206.516 89.0111 206.798 89.3747 207.016C89.7565 207.216 90.2292 207.316 90.7928 207.316C91.4474 207.316 92.0292 207.125 92.5382 206.743C93.0655 206.343 93.5291 205.825 93.9291 205.189C94.3291 204.552 94.6654 203.843 94.9382 203.061C95.2291 202.261 95.4563 201.461 95.62 200.662C95.8018 199.843 95.929 199.071 96.0018 198.343C96.0927 197.598 96.1381 196.971 96.1381 196.462Z" fill="white"/>
<path d="M105.174 143.17C105.174 143.715 105.265 144.188 105.446 144.588C105.646 144.988 105.901 145.325 106.21 145.597C106.537 145.852 106.91 146.043 107.328 146.17C107.765 146.279 108.228 146.334 108.719 146.334C109.319 146.334 109.865 146.243 110.355 146.061C110.846 145.861 111.264 145.597 111.61 145.27C111.974 144.925 112.246 144.515 112.428 144.043C112.628 143.57 112.728 143.052 112.728 142.488C112.728 141.416 112.392 140.643 111.719 140.17C111.046 139.679 110.192 139.434 109.155 139.434C107.901 139.434 106.919 139.761 106.21 140.416C105.519 141.052 105.174 141.97 105.174 143.17ZM107.274 134.498C107.274 134.934 107.356 135.316 107.519 135.643C107.683 135.97 107.901 136.243 108.174 136.461C108.446 136.679 108.765 136.843 109.128 136.952C109.492 137.061 109.874 137.116 110.274 137.116C111.31 137.116 112.119 136.87 112.701 136.379C113.301 135.87 113.601 135.088 113.601 134.034C113.601 133.561 113.519 133.161 113.355 132.834C113.192 132.489 112.974 132.216 112.701 132.016C112.428 131.798 112.11 131.643 111.746 131.552C111.383 131.443 111.001 131.389 110.601 131.389C109.565 131.389 108.746 131.68 108.146 132.261C107.565 132.825 107.274 133.57 107.274 134.498ZM102.065 143.225C102.065 142.497 102.192 141.834 102.447 141.234C102.719 140.634 103.074 140.106 103.51 139.652C103.947 139.197 104.437 138.834 104.983 138.561C105.546 138.27 106.119 138.079 106.701 137.988V137.934C105.937 137.516 105.346 137.016 104.928 136.434C104.528 135.852 104.328 135.116 104.328 134.225C104.328 133.352 104.492 132.589 104.819 131.934C105.165 131.28 105.628 130.734 106.21 130.298C106.81 129.843 107.501 129.507 108.283 129.289C109.065 129.052 109.91 128.934 110.819 128.934C111.546 128.934 112.255 129.016 112.946 129.18C113.637 129.343 114.246 129.616 114.773 129.998C115.301 130.38 115.728 130.87 116.055 131.47C116.382 132.07 116.546 132.807 116.546 133.679C116.546 134.952 116.21 135.988 115.537 136.788C114.864 137.57 114.037 138.061 113.055 138.261V138.288C113.983 138.652 114.673 139.243 115.128 140.061C115.601 140.861 115.837 141.806 115.837 142.897C115.837 143.752 115.628 144.543 115.21 145.27C114.792 145.979 114.237 146.597 113.546 147.124C112.874 147.634 112.11 148.043 111.255 148.352C110.419 148.643 109.583 148.788 108.746 148.788C107.728 148.788 106.81 148.661 105.992 148.406C105.174 148.134 104.474 147.761 103.892 147.288C103.31 146.797 102.856 146.215 102.528 145.543C102.219 144.852 102.065 144.079 102.065 143.225ZM117.519 141.479C117.519 141.352 117.546 140.952 117.601 140.279C117.655 139.607 117.773 138.807 117.955 137.879C118.155 136.952 118.437 135.97 118.801 134.934C119.182 133.879 119.7 132.907 120.355 132.016C121.01 131.125 121.819 130.389 122.782 129.807C123.764 129.225 124.946 128.934 126.328 128.934C128.364 128.934 129.809 129.57 130.664 130.843C131.536 132.116 131.973 133.916 131.973 136.243C131.973 136.643 131.927 137.234 131.836 138.016C131.746 138.779 131.582 139.625 131.346 140.552C131.127 141.479 130.809 142.434 130.391 143.415C129.973 144.397 129.437 145.288 128.782 146.088C128.146 146.87 127.364 147.515 126.437 148.024C125.509 148.533 124.419 148.788 123.164 148.788C122.146 148.788 121.273 148.615 120.546 148.27C119.837 147.906 119.255 147.406 118.801 146.77C118.364 146.115 118.037 145.343 117.819 144.452C117.619 143.561 117.519 142.57 117.519 141.479ZM128.864 135.343C128.864 134.852 128.818 134.379 128.727 133.925C128.637 133.452 128.482 133.043 128.264 132.698C128.046 132.334 127.746 132.052 127.364 131.852C127 131.634 126.537 131.525 125.973 131.525C125.318 131.525 124.728 131.725 124.2 132.125C123.691 132.507 123.237 133.016 122.837 133.652C122.437 134.289 122.091 135.007 121.8 135.807C121.528 136.588 121.3 137.388 121.119 138.207C120.955 139.007 120.828 139.779 120.737 140.525C120.664 141.252 120.628 141.87 120.628 142.379C120.628 142.87 120.673 143.352 120.764 143.825C120.855 144.279 121.01 144.688 121.228 145.052C121.446 145.397 121.737 145.679 122.1 145.897C122.482 146.097 122.955 146.197 123.519 146.197C124.173 146.197 124.755 146.006 125.264 145.624C125.791 145.225 126.255 144.706 126.655 144.07C127.055 143.434 127.391 142.725 127.664 141.943C127.955 141.143 128.182 140.343 128.346 139.543C128.527 138.725 128.655 137.952 128.727 137.225C128.818 136.479 128.864 135.852 128.864 135.343Z" fill="white"/>
<path d="M153.328 90.4536C154.619 90.4536 155.828 90.2081 156.955 89.7172C158.082 89.2082 158.964 88.3991 159.6 87.29H162.082L158.073 106.38H154.773L157.664 92.4444C156.846 92.6262 156.037 92.7535 155.237 92.8262C154.455 92.8808 153.646 92.908 152.81 92.908L153.328 90.4536ZM165.182 99.4533C165.182 99.326 165.209 98.926 165.264 98.2533C165.318 97.5806 165.437 96.7806 165.618 95.8534C165.818 94.9261 166.1 93.9444 166.464 92.908C166.846 91.8535 167.364 90.8808 168.018 89.9899C168.673 89.0991 169.482 88.3627 170.445 87.7809C171.427 87.1991 172.609 86.9082 173.991 86.9082C176.027 86.9082 177.472 87.5446 178.327 88.8173C179.2 90.0899 179.636 91.8899 179.636 94.2171C179.636 94.6171 179.591 95.208 179.5 95.9897C179.409 96.7534 179.245 97.5988 179.009 98.526C178.791 99.4533 178.472 100.408 178.054 101.39C177.636 102.371 177.1 103.262 176.445 104.062C175.809 104.844 175.027 105.489 174.1 105.999C173.173 106.508 172.082 106.762 170.827 106.762C169.809 106.762 168.936 106.589 168.209 106.244C167.5 105.88 166.918 105.38 166.464 104.744C166.027 104.089 165.7 103.317 165.482 102.426C165.282 101.535 165.182 100.544 165.182 99.4533ZM176.527 93.3171C176.527 92.8262 176.482 92.3535 176.391 91.899C176.3 91.4263 176.145 91.0172 175.927 90.6717C175.709 90.3081 175.409 90.0263 175.027 89.8263C174.663 89.6081 174.2 89.4991 173.636 89.4991C172.982 89.4991 172.391 89.699 171.864 90.099C171.354 90.4808 170.9 90.9899 170.5 91.6263C170.1 92.2626 169.755 92.9808 169.464 93.7807C169.191 94.5625 168.964 95.3625 168.782 96.1807C168.618 96.9806 168.491 97.7533 168.4 98.4988C168.327 99.226 168.291 99.8442 168.291 100.353C168.291 100.844 168.336 101.326 168.427 101.799C168.518 102.253 168.673 102.662 168.891 103.026C169.109 103.371 169.4 103.653 169.764 103.871C170.145 104.071 170.618 104.171 171.182 104.171C171.836 104.171 172.418 103.98 172.927 103.599C173.454 103.199 173.918 102.68 174.318 102.044C174.718 101.408 175.054 100.699 175.327 99.9169C175.618 99.1169 175.845 98.3169 176.009 97.517C176.191 96.6988 176.318 95.9261 176.391 95.1989C176.482 94.4534 176.527 93.8262 176.527 93.3171ZM180.336 99.4533C180.336 99.326 180.363 98.926 180.418 98.2533C180.472 97.5806 180.59 96.7806 180.772 95.8534C180.972 94.9261 181.254 93.9444 181.618 92.908C182 91.8535 182.518 90.8808 183.172 89.9899C183.827 89.0991 184.636 88.3627 185.599 87.7809C186.581 87.1991 187.763 86.9082 189.145 86.9082C191.181 86.9082 192.626 87.5446 193.481 88.8173C194.354 90.0899 194.79 91.8899 194.79 94.2171C194.79 94.6171 194.745 95.208 194.654 95.9897C194.563 96.7534 194.399 97.5988 194.163 98.526C193.945 99.4533 193.626 100.408 193.208 101.39C192.79 102.371 192.254 103.262 191.599 104.062C190.963 104.844 190.181 105.489 189.254 105.999C188.327 106.508 187.236 106.762 185.981 106.762C184.963 106.762 184.09 106.589 183.363 106.244C182.654 105.88 182.072 105.38 181.618 104.744C181.181 104.089 180.854 103.317 180.636 102.426C180.436 101.535 180.336 100.544 180.336 99.4533ZM191.681 93.3171C191.681 92.8262 191.636 92.3535 191.545 91.899C191.454 91.4263 191.299 91.0172 191.081 90.6717C190.863 90.3081 190.563 90.0263 190.181 89.8263C189.817 89.6081 189.354 89.4991 188.79 89.4991C188.136 89.4991 187.545 89.699 187.018 90.099C186.508 90.4808 186.054 90.9899 185.654 91.6263C185.254 92.2626 184.909 92.9808 184.618 93.7807C184.345 94.5625 184.118 95.3625 183.936 96.1807C183.772 96.9806 183.645 97.7533 183.554 98.4988C183.481 99.226 183.445 99.8442 183.445 100.353C183.445 100.844 183.49 101.326 183.581 101.799C183.672 102.253 183.827 102.662 184.045 103.026C184.263 103.371 184.554 103.653 184.918 103.871C185.299 104.071 185.772 104.171 186.336 104.171C186.99 104.171 187.572 103.98 188.081 103.599C188.608 103.199 189.072 102.68 189.472 102.044C189.872 101.408 190.208 100.699 190.481 99.9169C190.772 99.1169 190.999 98.3169 191.163 97.517C191.345 96.6988 191.472 95.9261 191.545 95.1989C191.636 94.4534 191.681 93.8262 191.681 93.3171Z" fill="white"/>
<path d="M213.326 58.1813C214.617 58.1813 215.826 57.9358 216.953 57.445C218.081 56.9359 218.962 56.1268 219.599 55.0178H222.08L218.071 74.108H214.772L217.662 60.1721C216.844 60.354 216.035 60.4812 215.235 60.5539C214.453 60.6085 213.644 60.6358 212.808 60.6358L213.326 58.1813ZM237.398 74.108H224.144C224.398 72.5081 224.971 71.1172 225.862 69.9355C226.771 68.7537 227.907 67.7537 229.271 66.9356C229.98 66.4992 230.707 66.0538 231.453 65.5992C232.216 65.1265 232.989 64.6538 233.771 64.1811C234.553 63.7084 235.189 63.1448 235.68 62.4902C236.189 61.8357 236.443 60.9721 236.443 59.8994C236.443 59.4631 236.353 59.0813 236.171 58.754C236.007 58.4086 235.78 58.1268 235.489 57.9086C235.216 57.6722 234.889 57.4995 234.507 57.3904C234.125 57.2813 233.734 57.2268 233.334 57.2268C232.734 57.2268 232.198 57.345 231.725 57.5813C231.253 57.7995 230.844 58.1086 230.498 58.5086C230.171 58.8904 229.907 59.354 229.707 59.8994C229.526 60.4267 229.416 60.9994 229.38 61.6175H226.435C226.526 60.5812 226.744 59.6358 227.089 58.7813C227.435 57.9086 227.907 57.1722 228.507 56.5723C229.107 55.9541 229.835 55.4814 230.689 55.1541C231.544 54.8087 232.516 54.636 233.607 54.636C234.444 54.636 235.216 54.745 235.925 54.9632C236.653 55.1814 237.28 55.5087 237.807 55.945C238.352 56.3814 238.78 56.9359 239.089 57.6086C239.398 58.2813 239.552 59.0631 239.552 59.954C239.552 61.0085 239.343 61.9266 238.925 62.7084C238.525 63.4902 237.989 64.1902 237.316 64.8084C236.662 65.4083 235.916 65.9629 235.08 66.4719C234.262 66.9628 233.434 67.4537 232.598 67.9446C231.78 68.4355 230.989 68.9537 230.225 69.4991C229.462 70.0264 228.826 70.6354 228.316 71.3263H237.998L237.398 74.108ZM240.334 67.181C240.334 67.0537 240.361 66.6537 240.416 65.981C240.471 65.3083 240.589 64.5084 240.771 63.5811C240.971 62.6539 241.252 61.6721 241.616 60.6358C241.998 59.5812 242.516 58.6086 243.17 57.7177C243.825 56.8268 244.634 56.0905 245.598 55.5087C246.579 54.9269 247.761 54.636 249.143 54.636C251.179 54.636 252.625 55.2723 253.479 56.545C254.352 57.8177 254.788 59.6176 254.788 61.9448C254.788 62.3448 254.743 62.9357 254.652 63.7175C254.561 64.4811 254.397 65.3265 254.161 66.2538C253.943 67.181 253.625 68.1355 253.206 69.1173C252.788 70.0991 252.252 70.99 251.597 71.7899C250.961 72.5717 250.179 73.2172 249.252 73.7262C248.325 74.2353 247.234 74.4899 245.979 74.4899C244.961 74.4899 244.089 74.3171 243.361 73.9717C242.652 73.6081 242.07 73.1081 241.616 72.4717C241.18 71.8172 240.852 71.0445 240.634 70.1536C240.434 69.2628 240.334 68.2719 240.334 67.181ZM251.679 61.0448C251.679 60.5539 251.634 60.0812 251.543 59.6267C251.452 59.154 251.297 58.7449 251.079 58.3995C250.861 58.0358 250.561 57.754 250.179 57.554C249.816 57.3359 249.352 57.2268 248.788 57.2268C248.134 57.2268 247.543 57.4268 247.016 57.8268C246.507 58.2086 246.052 58.7176 245.652 59.354C245.252 59.9903 244.907 60.7085 244.616 61.5085C244.343 62.2903 244.116 63.0902 243.934 63.9084C243.77 64.7084 243.643 65.4811 243.552 66.2265C243.48 66.9537 243.443 67.5719 243.443 68.081C243.443 68.5719 243.489 69.0537 243.58 69.5264C243.67 69.9809 243.825 70.39 244.043 70.7536C244.261 71.0991 244.552 71.3809 244.916 71.599C245.298 71.799 245.77 71.899 246.334 71.899C246.989 71.899 247.57 71.7081 248.079 71.3263C248.607 70.9263 249.07 70.4082 249.47 69.7718C249.87 69.1355 250.207 68.4264 250.479 67.6446C250.77 66.8446 250.997 66.0447 251.161 65.2447C251.343 64.4265 251.47 63.6538 251.543 62.9266C251.634 62.1812 251.679 61.5539 251.679 61.0448Z" fill="white"/>
<path d="M291.505 58.1813C292.796 58.1813 294.005 57.9358 295.133 57.445C296.26 56.9359 297.142 56.1268 297.778 55.0178H300.26L296.251 74.108H292.951L295.842 60.1721C295.023 60.354 294.214 60.4812 293.414 60.5539C292.633 60.6085 291.824 60.6358 290.987 60.6358L291.505 58.1813ZM316.968 69.5809H314.377L313.423 74.108H310.314L311.268 69.5809H303.087L303.687 66.581L314.323 55.0178H317.432L314.895 67.1265H317.486L316.968 69.5809ZM313.559 59.1358H313.505L306.114 67.1265H311.786L313.559 59.1358ZM318.513 67.181C318.513 67.0537 318.541 66.6537 318.595 65.981C318.65 65.3083 318.768 64.5084 318.95 63.5811C319.15 62.6539 319.432 61.6721 319.795 60.6358C320.177 59.5812 320.695 58.6086 321.35 57.7177C322.004 56.8268 322.813 56.0905 323.777 55.5087C324.759 54.9269 325.94 54.636 327.322 54.636C329.359 54.636 330.804 55.2723 331.658 56.545C332.531 57.8177 332.968 59.6176 332.968 61.9448C332.968 62.3448 332.922 62.9357 332.831 63.7175C332.74 64.4811 332.577 65.3265 332.34 66.2538C332.122 67.181 331.804 68.1355 331.386 69.1173C330.968 70.0991 330.431 70.99 329.777 71.7899C329.14 72.5717 328.359 73.2172 327.431 73.7262C326.504 74.2353 325.413 74.4899 324.159 74.4899C323.141 74.4899 322.268 74.3171 321.541 73.9717C320.832 73.6081 320.25 73.1081 319.795 72.4717C319.359 71.8172 319.032 71.0445 318.813 70.1536C318.613 69.2628 318.513 68.2719 318.513 67.181ZM329.859 61.0448C329.859 60.5539 329.813 60.0812 329.722 59.6267C329.631 59.154 329.477 58.7449 329.259 58.3995C329.04 58.0358 328.74 57.754 328.359 57.554C327.995 57.3359 327.531 57.2268 326.968 57.2268C326.313 57.2268 325.722 57.4268 325.195 57.8268C324.686 58.2086 324.231 58.7176 323.831 59.354C323.431 59.9903 323.086 60.7085 322.795 61.5085C322.522 62.2903 322.295 63.0902 322.113 63.9084C321.95 64.7084 321.822 65.4811 321.732 66.2265C321.659 66.9537 321.622 67.5719 321.622 68.081C321.622 68.5719 321.668 69.0537 321.759 69.5264C321.85 69.9809 322.004 70.39 322.222 70.7536C322.441 71.0991 322.731 71.3809 323.095 71.599C323.477 71.799 323.95 71.899 324.513 71.899C325.168 71.899 325.75 71.7081 326.259 71.3263C326.786 70.9263 327.25 70.4082 327.649 69.7718C328.049 69.1355 328.386 68.4264 328.659 67.6446C328.949 66.8446 329.177 66.0447 329.34 65.2447C329.522 64.4265 329.649 63.6538 329.722 62.9266C329.813 62.1812 329.859 61.5539 329.859 61.0448Z" fill="white"/>
<path d="M353.321 90.4536C354.612 90.4536 355.821 90.2081 356.948 89.7172C358.076 89.2082 358.957 88.3991 359.594 87.29H362.076L358.067 106.38H354.767L357.658 92.4444C356.839 92.6262 356.03 92.7535 355.23 92.8262C354.449 92.8808 353.639 92.908 352.803 92.908L353.321 90.4536ZM371.884 104.171C372.521 104.171 373.075 104.044 373.548 103.789C374.039 103.517 374.448 103.171 374.775 102.753C375.102 102.317 375.348 101.826 375.511 101.28C375.675 100.735 375.757 100.19 375.757 99.6442C375.757 98.6624 375.484 97.8624 374.939 97.2443C374.393 96.6079 373.593 96.2897 372.539 96.2897C371.902 96.2897 371.339 96.4079 370.848 96.6443C370.357 96.8624 369.948 97.1715 369.621 97.5715C369.293 97.9715 369.039 98.4351 368.857 98.9624C368.693 99.4715 368.612 100.026 368.612 100.626C368.612 101.117 368.684 101.58 368.83 102.017C368.975 102.435 369.184 102.808 369.457 103.135C369.73 103.444 370.066 103.699 370.466 103.899C370.884 104.08 371.357 104.171 371.884 104.171ZM377.066 92.1171C377.066 91.299 376.839 90.6627 376.384 90.2081C375.948 89.7354 375.339 89.4991 374.557 89.4991C373.721 89.4991 373.002 89.69 372.402 90.0718C371.802 90.4536 371.284 90.9445 370.848 91.5444C370.43 92.1444 370.075 92.808 369.784 93.5353C369.512 94.2625 369.284 94.9625 369.103 95.6352L369.157 95.6898C369.684 95.0352 370.293 94.5625 370.984 94.2716C371.693 93.9807 372.457 93.8353 373.275 93.8353C374.184 93.8353 374.984 93.9898 375.675 94.2989C376.384 94.5898 376.975 94.9989 377.448 95.5261C377.92 96.0534 378.275 96.6806 378.511 97.4079C378.748 98.1351 378.866 98.926 378.866 99.7805C378.866 100.762 378.684 101.68 378.32 102.535C377.975 103.39 377.493 104.135 376.875 104.771C376.275 105.389 375.566 105.88 374.748 106.244C373.948 106.589 373.093 106.762 372.184 106.762C370.984 106.762 369.957 106.589 369.103 106.244C368.266 105.88 367.575 105.371 367.03 104.717C366.503 104.062 366.112 103.262 365.857 102.317C365.621 101.353 365.503 100.271 365.503 99.0715C365.503 98.8533 365.53 98.4079 365.584 97.7351C365.639 97.0443 365.766 96.2443 365.966 95.3352C366.166 94.4262 366.457 93.4807 366.839 92.499C367.239 91.5172 367.775 90.6081 368.448 89.7718C369.121 88.9354 369.957 88.2536 370.957 87.7264C371.957 87.1809 373.166 86.9082 374.584 86.9082C375.402 86.9082 376.148 87.0264 376.82 87.2628C377.493 87.4809 378.075 87.8082 378.566 88.2445C379.057 88.6809 379.439 89.2263 379.711 89.8809C380.002 90.5354 380.157 91.2808 380.175 92.1171H377.066ZM380.329 99.4533C380.329 99.326 380.357 98.926 380.411 98.2533C380.466 97.5806 380.584 96.7806 380.766 95.8534C380.966 94.9261 381.248 93.9444 381.611 92.908C381.993 91.8535 382.511 90.8808 383.166 89.9899C383.82 89.0991 384.629 88.3627 385.593 87.7809C386.575 87.1991 387.756 86.9082 389.138 86.9082C391.174 86.9082 392.62 87.5446 393.474 88.8173C394.347 90.0899 394.783 91.8899 394.783 94.2171C394.783 94.6171 394.738 95.208 394.647 95.9897C394.556 96.7534 394.393 97.5988 394.156 98.526C393.938 99.4533 393.62 100.408 393.202 101.39C392.783 102.371 392.247 103.262 391.593 104.062C390.956 104.844 390.174 105.489 389.247 105.999C388.32 106.508 387.229 106.762 385.975 106.762C384.956 106.762 384.084 106.589 383.357 106.244C382.647 105.88 382.066 105.38 381.611 104.744C381.175 104.089 380.848 103.317 380.629 102.426C380.429 101.535 380.329 100.544 380.329 99.4533ZM391.674 93.3171C391.674 92.8262 391.629 92.3535 391.538 91.899C391.447 91.4263 391.293 91.0172 391.074 90.6717C390.856 90.3081 390.556 90.0263 390.174 89.8263C389.811 89.6081 389.347 89.4991 388.784 89.4991C388.129 89.4991 387.538 89.699 387.011 90.099C386.502 90.4808 386.047 90.9899 385.647 91.6263C385.247 92.2626 384.902 92.9808 384.611 93.7807C384.338 94.5625 384.111 95.3625 383.929 96.1807C383.766 96.9806 383.638 97.7533 383.547 98.4988C383.475 99.226 383.438 99.8442 383.438 100.353C383.438 100.844 383.484 101.326 383.575 101.799C383.666 102.253 383.82 102.662 384.038 103.026C384.256 103.371 384.547 103.653 384.911 103.871C385.293 104.071 385.766 104.171 386.329 104.171C386.984 104.171 387.565 103.98 388.075 103.599C388.602 103.199 389.065 102.68 389.465 102.044C389.865 101.408 390.202 100.699 390.474 99.9169C390.765 99.1169 390.993 98.3169 391.156 97.517C391.338 96.6988 391.465 95.9261 391.538 95.1989C391.629 94.4534 391.674 93.8262 391.674 93.3171Z" fill="white"/>
<path d="M400.593 132.479C401.884 132.479 403.093 132.234 404.22 131.743C405.347 131.234 406.229 130.425 406.865 129.316H409.347L405.338 148.406H402.038L404.929 134.47C404.111 134.652 403.302 134.779 402.502 134.852C401.72 134.907 400.911 134.934 400.074 134.934L400.593 132.479ZM415.256 143.17C415.256 143.715 415.347 144.188 415.528 144.588C415.728 144.988 415.983 145.325 416.292 145.597C416.619 145.852 416.992 146.043 417.41 146.17C417.847 146.279 418.31 146.334 418.801 146.334C419.401 146.334 419.946 146.243 420.437 146.061C420.928 145.861 421.346 145.597 421.692 145.27C422.056 144.925 422.328 144.515 422.51 144.043C422.71 143.57 422.81 143.052 422.81 142.488C422.81 141.416 422.474 140.643 421.801 140.17C421.128 139.679 420.274 139.434 419.237 139.434C417.983 139.434 417.001 139.761 416.292 140.416C415.601 141.052 415.256 141.97 415.256 143.17ZM417.356 134.498C417.356 134.934 417.437 135.316 417.601 135.643C417.765 135.97 417.983 136.243 418.256 136.461C418.528 136.679 418.847 136.843 419.21 136.952C419.574 137.061 419.956 137.116 420.356 137.116C421.392 137.116 422.201 136.87 422.783 136.379C423.383 135.87 423.683 135.088 423.683 134.034C423.683 133.561 423.601 133.161 423.437 132.834C423.274 132.489 423.055 132.216 422.783 132.016C422.51 131.798 422.192 131.643 421.828 131.552C421.465 131.443 421.083 131.389 420.683 131.389C419.647 131.389 418.828 131.68 418.228 132.261C417.647 132.825 417.356 133.57 417.356 134.498ZM412.147 143.225C412.147 142.497 412.274 141.834 412.529 141.234C412.801 140.634 413.156 140.106 413.592 139.652C414.029 139.197 414.519 138.834 415.065 138.561C415.628 138.27 416.201 138.079 416.783 137.988V137.934C416.019 137.516 415.428 137.016 415.01 136.434C414.61 135.852 414.41 135.116 414.41 134.225C414.41 133.352 414.574 132.589 414.901 131.934C415.247 131.28 415.71 130.734 416.292 130.298C416.892 129.843 417.583 129.507 418.365 129.289C419.147 129.052 419.992 128.934 420.901 128.934C421.628 128.934 422.337 129.016 423.028 129.18C423.719 129.343 424.328 129.616 424.855 129.998C425.383 130.38 425.81 130.87 426.137 131.47C426.464 132.07 426.628 132.807 426.628 133.679C426.628 134.952 426.292 135.988 425.619 136.788C424.946 137.57 424.119 138.061 423.137 138.261V138.288C424.065 138.652 424.755 139.243 425.21 140.061C425.683 140.861 425.919 141.806 425.919 142.897C425.919 143.752 425.71 144.543 425.292 145.27C424.874 145.979 424.319 146.597 423.628 147.124C422.955 147.634 422.192 148.043 421.337 148.352C420.501 148.643 419.665 148.788 418.828 148.788C417.81 148.788 416.892 148.661 416.074 148.406C415.256 148.134 414.556 147.761 413.974 147.288C413.392 146.797 412.938 146.215 412.61 145.543C412.301 144.852 412.147 144.079 412.147 143.225ZM427.601 141.479C427.601 141.352 427.628 140.952 427.683 140.279C427.737 139.607 427.855 138.807 428.037 137.879C428.237 136.952 428.519 135.97 428.882 134.934C429.264 133.879 429.782 132.907 430.437 132.016C431.092 131.125 431.901 130.389 432.864 129.807C433.846 129.225 435.028 128.934 436.41 128.934C438.446 128.934 439.891 129.57 440.746 130.843C441.618 132.116 442.055 133.916 442.055 136.243C442.055 136.643 442.009 137.234 441.918 138.016C441.828 138.779 441.664 139.625 441.428 140.552C441.209 141.479 440.891 142.434 440.473 143.415C440.055 144.397 439.519 145.288 438.864 146.088C438.228 146.87 437.446 147.515 436.519 148.024C435.591 148.533 434.5 148.788 433.246 148.788C432.228 148.788 431.355 148.615 430.628 148.27C429.919 147.906 429.337 147.406 428.882 146.77C428.446 146.115 428.119 145.343 427.901 144.452C427.701 143.561 427.601 142.57 427.601 141.479ZM438.946 135.343C438.946 134.852 438.9 134.379 438.809 133.925C438.719 133.452 438.564 133.043 438.346 132.698C438.128 132.334 437.828 132.052 437.446 131.852C437.082 131.634 436.619 131.525 436.055 131.525C435.4 131.525 434.81 131.725 434.282 132.125C433.773 132.507 433.319 133.016 432.919 133.652C432.519 134.289 432.173 135.007 431.882 135.807C431.61 136.588 431.382 137.388 431.201 138.207C431.037 139.007 430.91 139.779 430.819 140.525C430.746 141.252 430.71 141.87 430.71 142.379C430.71 142.87 430.755 143.352 430.846 143.825C430.937 144.279 431.092 144.688 431.31 145.052C431.528 145.397 431.819 145.679 432.182 145.897C432.564 146.097 433.037 146.197 433.601 146.197C434.255 146.197 434.837 146.006 435.346 145.624C435.873 145.225 436.337 144.706 436.737 144.07C437.137 143.434 437.473 142.725 437.746 141.943C438.037 141.143 438.264 140.343 438.428 139.543C438.609 138.725 438.737 137.952 438.809 137.225C438.9 136.479 438.946 135.852 438.946 135.343Z" fill="white"/>
<path d="M440.419 209.525H427.164C427.419 207.925 427.992 206.534 428.883 205.352C429.792 204.171 430.928 203.171 432.291 202.352C433.001 201.916 433.728 201.471 434.473 201.016C435.237 200.543 436.01 200.071 436.791 199.598C437.573 199.125 438.209 198.562 438.7 197.907C439.209 197.253 439.464 196.389 439.464 195.316C439.464 194.88 439.373 194.498 439.191 194.171C439.028 193.825 438.8 193.544 438.509 193.325C438.237 193.089 437.909 192.916 437.528 192.807C437.146 192.698 436.755 192.644 436.355 192.644C435.755 192.644 435.219 192.762 434.746 192.998C434.273 193.216 433.864 193.525 433.519 193.925C433.191 194.307 432.928 194.771 432.728 195.316C432.546 195.844 432.437 196.416 432.401 197.034H429.455C429.546 195.998 429.764 195.053 430.11 194.198C430.455 193.325 430.928 192.589 431.528 191.989C432.128 191.371 432.855 190.898 433.71 190.571C434.564 190.226 435.537 190.053 436.628 190.053C437.464 190.053 438.237 190.162 438.946 190.38C439.673 190.598 440.3 190.925 440.828 191.362C441.373 191.798 441.8 192.353 442.109 193.025C442.418 193.698 442.573 194.48 442.573 195.371C442.573 196.425 442.364 197.343 441.946 198.125C441.546 198.907 441.009 199.607 440.337 200.225C439.682 200.825 438.937 201.38 438.1 201.889C437.282 202.38 436.455 202.871 435.619 203.361C434.801 203.852 434.01 204.37 433.246 204.916C432.482 205.443 431.846 206.052 431.337 206.743H441.018L440.419 209.525ZM443.355 202.598C443.355 202.471 443.382 202.071 443.437 201.398C443.491 200.725 443.609 199.925 443.791 198.998C443.991 198.071 444.273 197.089 444.636 196.053C445.018 194.998 445.536 194.025 446.191 193.134C446.845 192.244 447.655 191.507 448.618 190.925C449.6 190.344 450.782 190.053 452.163 190.053C454.2 190.053 455.645 190.689 456.5 191.962C457.372 193.234 457.809 195.034 457.809 197.362C457.809 197.762 457.763 198.353 457.672 199.134C457.582 199.898 457.418 200.743 457.182 201.671C456.963 202.598 456.645 203.552 456.227 204.534C455.809 205.516 455.272 206.407 454.618 207.207C453.982 207.989 453.2 208.634 452.273 209.143C451.345 209.652 450.254 209.907 449 209.907C447.982 209.907 447.109 209.734 446.382 209.389C445.673 209.025 445.091 208.525 444.636 207.889C444.2 207.234 443.873 206.461 443.655 205.57C443.455 204.68 443.355 203.689 443.355 202.598ZM454.7 196.462C454.7 195.971 454.654 195.498 454.563 195.044C454.473 194.571 454.318 194.162 454.1 193.816C453.882 193.453 453.582 193.171 453.2 192.971C452.836 192.753 452.373 192.644 451.809 192.644C451.154 192.644 450.564 192.844 450.036 193.244C449.527 193.625 449.073 194.134 448.673 194.771C448.273 195.407 447.927 196.125 447.636 196.925C447.364 197.707 447.136 198.507 446.955 199.325C446.791 200.125 446.664 200.898 446.573 201.643C446.5 202.371 446.464 202.989 446.464 203.498C446.464 203.989 446.509 204.47 446.6 204.943C446.691 205.398 446.845 205.807 447.064 206.17C447.282 206.516 447.573 206.798 447.936 207.016C448.318 207.216 448.791 207.316 449.355 207.316C450.009 207.316 450.591 207.125 451.1 206.743C451.627 206.343 452.091 205.825 452.491 205.189C452.891 204.552 453.227 203.843 453.5 203.061C453.791 202.261 454.018 201.461 454.182 200.662C454.363 199.843 454.491 199.071 454.563 198.343C454.654 197.598 454.7 196.971 454.7 196.462ZM458.509 202.598C458.509 202.471 458.536 202.071 458.59 201.398C458.645 200.725 458.763 199.925 458.945 198.998C459.145 198.071 459.427 197.089 459.79 196.053C460.172 194.998 460.69 194.025 461.345 193.134C461.999 192.244 462.809 191.507 463.772 190.925C464.754 190.344 465.936 190.053 467.317 190.053C469.354 190.053 470.799 190.689 471.654 191.962C472.526 193.234 472.963 195.034 472.963 197.362C472.963 197.762 472.917 198.353 472.826 199.134C472.735 199.898 472.572 200.743 472.335 201.671C472.117 202.598 471.799 203.552 471.381 204.534C470.963 205.516 470.426 206.407 469.772 207.207C469.136 207.989 468.354 208.634 467.427 209.143C466.499 209.652 465.408 209.907 464.154 209.907C463.136 209.907 462.263 209.734 461.536 209.389C460.827 209.025 460.245 208.525 459.79 207.889C459.354 207.234 459.027 206.461 458.809 205.57C458.609 204.68 458.509 203.689 458.509 202.598ZM469.854 196.462C469.854 195.971 469.808 195.498 469.717 195.044C469.626 194.571 469.472 194.162 469.254 193.816C469.036 193.453 468.736 193.171 468.354 192.971C467.99 192.753 467.527 192.644 466.963 192.644C466.308 192.644 465.718 192.844 465.19 193.244C464.681 193.625 464.227 194.134 463.827 194.771C463.427 195.407 463.081 196.125 462.79 196.925C462.518 197.707 462.29 198.507 462.109 199.325C461.945 200.125 461.818 200.898 461.727 201.643C461.654 202.371 461.618 202.989 461.618 203.498C461.618 203.989 461.663 204.47 461.754 204.943C461.845 205.398 461.999 205.807 462.218 206.17C462.436 206.516 462.727 206.798 463.09 207.016C463.472 207.216 463.945 207.316 464.508 207.316C465.163 207.316 465.745 207.125 466.254 206.743C466.781 206.343 467.245 205.825 467.645 205.189C468.045 204.552 468.381 203.843 468.654 203.061C468.945 202.261 469.172 201.461 469.336 200.662C469.517 199.843 469.645 199.071 469.717 198.343C469.808 197.598 469.854 196.971 469.854 196.462Z" fill="white"/>
<path d="M459.508 283.307H446.254C446.509 281.707 447.081 280.316 447.972 279.134C448.881 277.952 450.018 276.952 451.381 276.134C452.09 275.698 452.818 275.253 453.563 274.798C454.327 274.325 455.099 273.853 455.881 273.38C456.663 272.907 457.299 272.344 457.79 271.689C458.299 271.034 458.554 270.171 458.554 269.098C458.554 268.662 458.463 268.28 458.281 267.953C458.117 267.607 457.89 267.326 457.599 267.107C457.327 266.871 456.999 266.698 456.618 266.589C456.236 266.48 455.845 266.426 455.445 266.426C454.845 266.426 454.309 266.544 453.836 266.78C453.363 266.998 452.954 267.307 452.609 267.707C452.281 268.089 452.018 268.553 451.818 269.098C451.636 269.625 451.527 270.198 451.49 270.816H448.545C448.636 269.78 448.854 268.835 449.2 267.98C449.545 267.107 450.018 266.371 450.618 265.771C451.218 265.153 451.945 264.68 452.799 264.353C453.654 264.007 454.627 263.835 455.718 263.835C456.554 263.835 457.327 263.944 458.036 264.162C458.763 264.38 459.39 264.707 459.917 265.144C460.463 265.58 460.89 266.135 461.199 266.807C461.508 267.48 461.663 268.262 461.663 269.153C461.663 270.207 461.454 271.125 461.036 271.907C460.636 272.689 460.099 273.389 459.427 274.007C458.772 274.607 458.027 275.162 457.19 275.671C456.372 276.162 455.545 276.652 454.709 277.143C453.89 277.634 453.099 278.152 452.336 278.698C451.572 279.225 450.936 279.834 450.427 280.525H460.108L459.508 283.307ZM474.662 283.307H461.408C461.663 281.707 462.235 280.316 463.126 279.134C464.035 277.952 465.172 276.952 466.535 276.134C467.244 275.698 467.972 275.253 468.717 274.798C469.481 274.325 470.253 273.853 471.035 273.38C471.817 272.907 472.453 272.344 472.944 271.689C473.453 271.034 473.708 270.171 473.708 269.098C473.708 268.662 473.617 268.28 473.435 267.953C473.271 267.607 473.044 267.326 472.753 267.107C472.481 266.871 472.153 266.698 471.772 266.589C471.39 266.48 470.999 266.426 470.599 266.426C469.999 266.426 469.462 266.544 468.99 266.78C468.517 266.998 468.108 267.307 467.763 267.707C467.435 268.089 467.172 268.553 466.972 269.098C466.79 269.625 466.681 270.198 466.644 270.816H463.699C463.79 269.78 464.008 268.835 464.354 267.98C464.699 267.107 465.172 266.371 465.772 265.771C466.372 265.153 467.099 264.68 467.953 264.353C468.808 264.007 469.781 263.835 470.872 263.835C471.708 263.835 472.481 263.944 473.19 264.162C473.917 264.38 474.544 264.707 475.071 265.144C475.617 265.58 476.044 266.135 476.353 266.807C476.662 267.48 476.817 268.262 476.817 269.153C476.817 270.207 476.608 271.125 476.19 271.907C475.79 272.689 475.253 273.389 474.581 274.007C473.926 274.607 473.181 275.162 472.344 275.671C471.526 276.162 470.699 276.652 469.862 277.143C469.044 277.634 468.253 278.152 467.49 278.698C466.726 279.225 466.09 279.834 465.581 280.525H475.262L474.662 283.307ZM477.599 276.38C477.599 276.253 477.626 275.853 477.68 275.18C477.735 274.507 477.853 273.707 478.035 272.78C478.235 271.853 478.517 270.871 478.88 269.835C479.262 268.78 479.78 267.807 480.435 266.916C481.089 266.026 481.898 265.289 482.862 264.707C483.844 264.126 485.026 263.835 486.407 263.835C488.444 263.835 489.889 264.471 490.744 265.744C491.616 267.016 492.053 268.816 492.053 271.144C492.053 271.544 492.007 272.134 491.916 272.916C491.825 273.68 491.662 274.525 491.425 275.453C491.207 276.38 490.889 277.334 490.471 278.316C490.053 279.298 489.516 280.189 488.862 280.989C488.225 281.771 487.444 282.416 486.516 282.925C485.589 283.434 484.498 283.689 483.244 283.689C482.226 283.689 481.353 283.516 480.626 283.17C479.917 282.807 479.335 282.307 478.88 281.671C478.444 281.016 478.117 280.243 477.899 279.352C477.699 278.462 477.599 277.471 477.599 276.38ZM488.944 270.244C488.944 269.753 488.898 269.28 488.807 268.825C488.716 268.353 488.562 267.944 488.344 267.598C488.125 267.235 487.825 266.953 487.444 266.753C487.08 266.535 486.616 266.426 486.053 266.426C485.398 266.426 484.807 266.626 484.28 267.026C483.771 267.407 483.317 267.916 482.917 268.553C482.517 269.189 482.171 269.907 481.88 270.707C481.607 271.489 481.38 272.289 481.198 273.107C481.035 273.907 480.907 274.68 480.817 275.425C480.744 276.153 480.708 276.771 480.708 277.28C480.708 277.771 480.753 278.252 480.844 278.725C480.935 279.18 481.089 279.589 481.307 279.952C481.526 280.298 481.817 280.58 482.18 280.798C482.562 280.998 483.035 281.098 483.598 281.098C484.253 281.098 484.835 280.907 485.344 280.525C485.871 280.125 486.335 279.607 486.735 278.971C487.135 278.334 487.471 277.625 487.744 276.843C488.035 276.043 488.262 275.243 488.425 274.443C488.607 273.625 488.735 272.853 488.807 272.125C488.898 271.38 488.944 270.753 488.944 270.244Z" fill="white"/>
<path d="M444.055 348.68H430.801C431.055 347.081 431.628 345.69 432.519 344.508C433.428 343.326 434.564 342.326 435.928 341.508C436.637 341.072 437.364 340.626 438.11 340.172C438.873 339.699 439.646 339.226 440.428 338.754C441.209 338.281 441.846 337.717 442.337 337.063C442.846 336.408 443.1 335.545 443.1 334.472C443.1 334.035 443.009 333.654 442.828 333.326C442.664 332.981 442.437 332.699 442.146 332.481C441.873 332.245 441.546 332.072 441.164 331.963C440.782 331.854 440.391 331.799 439.991 331.799C439.391 331.799 438.855 331.917 438.382 332.154C437.91 332.372 437.501 332.681 437.155 333.081C436.828 333.463 436.564 333.926 436.364 334.472C436.182 334.999 436.073 335.572 436.037 336.19H433.092C433.182 335.154 433.401 334.208 433.746 333.354C434.092 332.481 434.564 331.745 435.164 331.145C435.764 330.527 436.491 330.054 437.346 329.727C438.2 329.381 439.173 329.208 440.264 329.208C441.1 329.208 441.873 329.317 442.582 329.536C443.309 329.754 443.937 330.081 444.464 330.517C445.009 330.954 445.437 331.508 445.746 332.181C446.055 332.854 446.209 333.636 446.209 334.526C446.209 335.581 446 336.499 445.582 337.281C445.182 338.063 444.646 338.763 443.973 339.381C443.319 339.981 442.573 340.535 441.737 341.044C440.919 341.535 440.091 342.026 439.255 342.517C438.437 343.008 437.646 343.526 436.882 344.072C436.119 344.599 435.482 345.208 434.973 345.899H444.655L444.055 348.68ZM460.6 344.153H458.009L457.054 348.68H453.945L454.9 344.153H446.718L447.318 341.153L457.954 329.59H461.063L458.527 341.699H461.118L460.6 344.153ZM457.191 333.708H457.136L449.746 341.699H455.418L457.191 333.708ZM462.145 341.753C462.145 341.626 462.172 341.226 462.227 340.553C462.281 339.881 462.4 339.081 462.581 338.154C462.781 337.226 463.063 336.245 463.427 335.208C463.809 334.154 464.327 333.181 464.981 332.29C465.636 331.399 466.445 330.663 467.408 330.081C468.39 329.499 469.572 329.208 470.954 329.208C472.99 329.208 474.436 329.845 475.29 331.117C476.163 332.39 476.599 334.19 476.599 336.517C476.599 336.917 476.554 337.508 476.463 338.29C476.372 339.054 476.208 339.899 475.972 340.826C475.754 341.753 475.436 342.708 475.017 343.69C474.599 344.672 474.063 345.562 473.408 346.362C472.772 347.144 471.99 347.79 471.063 348.299C470.136 348.808 469.045 349.062 467.79 349.062C466.772 349.062 465.899 348.89 465.172 348.544C464.463 348.18 463.881 347.68 463.427 347.044C462.99 346.39 462.663 345.617 462.445 344.726C462.245 343.835 462.145 342.844 462.145 341.753ZM473.49 335.617C473.49 335.126 473.445 334.654 473.354 334.199C473.263 333.726 473.108 333.317 472.89 332.972C472.672 332.608 472.372 332.326 471.99 332.126C471.627 331.908 471.163 331.799 470.599 331.799C469.945 331.799 469.354 331.999 468.827 332.399C468.318 332.781 467.863 333.29 467.463 333.926C467.063 334.563 466.718 335.281 466.427 336.081C466.154 336.863 465.927 337.663 465.745 338.481C465.581 339.281 465.454 340.053 465.363 340.799C465.29 341.526 465.254 342.144 465.254 342.653C465.254 343.144 465.299 343.626 465.39 344.099C465.481 344.553 465.636 344.962 465.854 345.326C466.072 345.671 466.363 345.953 466.727 346.171C467.108 346.371 467.581 346.471 468.145 346.471C468.799 346.471 469.381 346.281 469.89 345.899C470.417 345.499 470.881 344.981 471.281 344.344C471.681 343.708 472.017 342.999 472.29 342.217C472.581 341.417 472.808 340.617 472.972 339.817C473.154 338.999 473.281 338.226 473.354 337.499C473.445 336.754 473.49 336.126 473.49 335.617Z" fill="white"/>
<path d="M407.692 415.923H394.438C394.692 414.324 395.265 412.933 396.156 411.751C397.065 410.569 398.201 409.569 399.565 408.751C400.274 408.315 401.001 407.869 401.747 407.415C402.51 406.942 403.283 406.469 404.065 405.997C404.846 405.524 405.483 404.96 405.974 404.306C406.483 403.651 406.737 402.788 406.737 401.715C406.737 401.279 406.646 400.897 406.465 400.569C406.301 400.224 406.074 399.942 405.783 399.724C405.51 399.488 405.183 399.315 404.801 399.206C404.419 399.097 404.028 399.042 403.628 399.042C403.028 399.042 402.492 399.16 402.019 399.397C401.547 399.615 401.137 399.924 400.792 400.324C400.465 400.706 400.201 401.169 400.001 401.715C399.819 402.242 399.71 402.815 399.674 403.433H396.729C396.819 402.397 397.038 401.451 397.383 400.597C397.729 399.724 398.201 398.988 398.801 398.388C399.401 397.77 400.128 397.297 400.983 396.97C401.837 396.624 402.81 396.451 403.901 396.451C404.737 396.451 405.51 396.56 406.219 396.779C406.946 396.997 407.574 397.324 408.101 397.76C408.646 398.197 409.074 398.751 409.383 399.424C409.692 400.097 409.846 400.879 409.846 401.769C409.846 402.824 409.637 403.742 409.219 404.524C408.819 405.306 408.283 406.006 407.61 406.624C406.955 407.224 406.21 407.778 405.374 408.287C404.556 408.778 403.728 409.269 402.892 409.76C402.074 410.251 401.283 410.769 400.519 411.315C399.756 411.842 399.119 412.451 398.61 413.142H408.292L407.692 415.923ZM417.337 413.714C417.973 413.714 418.528 413.587 419 413.333C419.491 413.06 419.9 412.714 420.228 412.296C420.555 411.86 420.8 411.369 420.964 410.824C421.128 410.278 421.209 409.733 421.209 409.187C421.209 408.206 420.937 407.406 420.391 406.787C419.846 406.151 419.046 405.833 417.991 405.833C417.355 405.833 416.791 405.951 416.301 406.187C415.81 406.406 415.401 406.715 415.073 407.115C414.746 407.515 414.492 407.978 414.31 408.506C414.146 409.015 414.064 409.569 414.064 410.169C414.064 410.66 414.137 411.124 414.282 411.56C414.428 411.978 414.637 412.351 414.91 412.678C415.182 412.987 415.519 413.242 415.919 413.442C416.337 413.624 416.81 413.714 417.337 413.714ZM422.519 401.66C422.519 400.842 422.291 400.206 421.837 399.751C421.4 399.279 420.791 399.042 420.01 399.042C419.173 399.042 418.455 399.233 417.855 399.615C417.255 399.997 416.737 400.488 416.301 401.088C415.882 401.688 415.528 402.351 415.237 403.078C414.964 403.806 414.737 404.506 414.555 405.178L414.61 405.233C415.137 404.578 415.746 404.106 416.437 403.815C417.146 403.524 417.91 403.378 418.728 403.378C419.637 403.378 420.437 403.533 421.128 403.842C421.837 404.133 422.428 404.542 422.9 405.069C423.373 405.597 423.728 406.224 423.964 406.951C424.2 407.678 424.318 408.469 424.318 409.324C424.318 410.305 424.137 411.224 423.773 412.078C423.428 412.933 422.946 413.678 422.328 414.314C421.728 414.933 421.019 415.423 420.2 415.787C419.4 416.133 418.546 416.305 417.637 416.305C416.437 416.305 415.41 416.133 414.555 415.787C413.719 415.423 413.028 414.914 412.482 414.26C411.955 413.605 411.564 412.805 411.31 411.86C411.073 410.896 410.955 409.815 410.955 408.615C410.955 408.396 410.983 407.951 411.037 407.278C411.092 406.587 411.219 405.787 411.419 404.878C411.619 403.969 411.91 403.024 412.292 402.042C412.692 401.06 413.228 400.151 413.901 399.315C414.573 398.479 415.41 397.797 416.41 397.27C417.41 396.724 418.619 396.451 420.037 396.451C420.855 396.451 421.6 396.57 422.273 396.806C422.946 397.024 423.528 397.351 424.018 397.788C424.509 398.224 424.891 398.769 425.164 399.424C425.455 400.079 425.609 400.824 425.628 401.66H422.519ZM425.782 408.996C425.782 408.869 425.809 408.469 425.864 407.796C425.918 407.124 426.037 406.324 426.218 405.397C426.418 404.469 426.7 403.488 427.064 402.451C427.446 401.397 427.964 400.424 428.618 399.533C429.273 398.642 430.082 397.906 431.045 397.324C432.027 396.742 433.209 396.451 434.591 396.451C436.627 396.451 438.072 397.088 438.927 398.36C439.8 399.633 440.236 401.433 440.236 403.76C440.236 404.16 440.191 404.751 440.1 405.533C440.009 406.297 439.845 407.142 439.609 408.069C439.391 408.996 439.072 409.951 438.654 410.933C438.236 411.915 437.7 412.805 437.045 413.605C436.409 414.387 435.627 415.033 434.7 415.542C433.773 416.051 432.682 416.305 431.427 416.305C430.409 416.305 429.536 416.133 428.809 415.787C428.1 415.423 427.518 414.924 427.064 414.287C426.627 413.633 426.3 412.86 426.082 411.969C425.882 411.078 425.782 410.087 425.782 408.996ZM437.127 402.86C437.127 402.369 437.082 401.897 436.991 401.442C436.9 400.969 436.745 400.56 436.527 400.215C436.309 399.851 436.009 399.569 435.627 399.369C435.263 399.151 434.8 399.042 434.236 399.042C433.582 399.042 432.991 399.242 432.464 399.642C431.955 400.024 431.5 400.533 431.1 401.169C430.7 401.806 430.355 402.524 430.064 403.324C429.791 404.106 429.564 404.906 429.382 405.724C429.218 406.524 429.091 407.296 429 408.042C428.927 408.769 428.891 409.387 428.891 409.896C428.891 410.387 428.936 410.869 429.027 411.342C429.118 411.796 429.273 412.205 429.491 412.569C429.709 412.914 430 413.196 430.364 413.414C430.745 413.614 431.218 413.714 431.782 413.714C432.436 413.714 433.018 413.524 433.527 413.142C434.054 412.742 434.518 412.224 434.918 411.587C435.318 410.951 435.654 410.242 435.927 409.46C436.218 408.66 436.445 407.86 436.609 407.06C436.791 406.242 436.918 405.469 436.991 404.742C437.082 403.997 437.127 403.369 437.127 402.86Z" fill="white"/>
</g>
<defs>
<filter id="filter0_d_2135_2660" x="-115.628" y="-90.517" width="700.891" height="700.891" filterUnits="userSpaceOnUse" color-interpolation-filters="sRGB">
<feFlood flood-opacity="0" result="BackgroundImageFix"/>
<feColorMatrix in="SourceAlpha" type="matrix" values="0 0 0 0 0 0 0 0 0 0 0 0 0 0 0 0 0 0 127 0" result="hardAlpha"/>
<feOffset dx="-36" dy="-10.36"/>
<feGaussianBlur stdDeviation="40"/>
<feComposite in2="hardAlpha" operator="out"/>
<feColorMatrix type="matrix" values="0 0 0 0 1 0 0 0 0 1 0 0 0 0 1 0 0 0 0.04 0"/>
<feBlend mode="normal" in2="BackgroundImageFix" result="effect1_dropShadow_2135_2660"/>
<feBlend mode="normal" in="SourceGraphic" in2="effect1_dropShadow_2135_2660" result="shape"/>
</filter>
<linearGradient id="paint0_linear_2135_2660" x1="76.6085" y1="429.991" x2="268.774" y2="270.069" gradientUnits="userSpaceOnUse">
<stop stop-color="white" stop-opacity="0.25"/>
<stop offset="0.7" stop-color="#0A0A0A" stop-opacity="0"/>
</linearGradient>
<linearGradient id="paint1_linear_2135_2660" x1="51.8729" y1="394.211" x2="268.889" y2="270.087" gradientUnits="userSpaceOnUse">
<stop stop-color="white" stop-opacity="0.25"/>
<stop offset="0.7" stop-color="#0A0A0A" stop-opacity="0"/>
</linearGradient>
<linearGradient id="paint2_linear_2135_2660" x1="41.9383" y1="374.833" x2="268.947" y2="270.095" gradientUnits="userSpaceOnUse">
<stop stop-color="white" stop-opacity="0.25"/>
<stop offset="0.7" stop-color="#0A0A0A" stop-opacity="0"/>
</linearGradient>
<linearGradient id="paint3_linear_2135_2660" x1="63.4595" y1="412.651" x2="268.832" y2="270.085" gradientUnits="userSpaceOnUse">
<stop stop-color="white" stop-opacity="0.25"/>
<stop offset="0.7" stop-color="#0A0A0A" stop-opacity="0"/>
</linearGradient>
<linearGradient id="paint4_linear_2135_2660" x1="33.7291" y1="354.667" x2="269.002" y2="270.113" gradientUnits="userSpaceOnUse">
<stop stop-color="white" stop-opacity="0.25"/>
<stop offset="1" stop-color="#0A0A0A" stop-opacity="0"/>
</linearGradient>
<linearGradient id="paint5_linear_2135_2660" x1="27.3086" y1="333.864" x2="269.056" y2="270.138" gradientUnits="userSpaceOnUse">
<stop stop-color="white" stop-opacity="0.25"/>
<stop offset="0.7" stop-color="#0A0A0A" stop-opacity="0"/>
</linearGradient>
<linearGradient id="paint6_linear_2135_2660" x1="22.7248" y1="312.591" x2="269.106" y2="270.176" gradientUnits="userSpaceOnUse">
<stop stop-color="white" stop-opacity="0.25"/>
<stop offset="0.7" stop-color="#0A0A0A" stop-opacity="0"/>
</linearGradient>
<linearGradient id="paint7_linear_2135_2660" x1="20.0138" y1="290.991" x2="269.154" y2="270.211" gradientUnits="userSpaceOnUse">
<stop stop-color="white" stop-opacity="0.25"/>
<stop offset="0.7" stop-color="#0A0A0A" stop-opacity="0"/>
</linearGradient>
<linearGradient id="paint8_linear_2135_2660" x1="19.1959" y1="269.236" x2="269.199" y2="270.249" gradientUnits="userSpaceOnUse">
<stop stop-color="white" stop-opacity="0.25"/>
<stop offset="0.7" stop-color="#0A0A0A" stop-opacity="0"/>
</linearGradient>
<linearGradient id="paint9_linear_2135_2660" x1="20.2786" y1="247.493" x2="269.242" y2="270.291" gradientUnits="userSpaceOnUse">
<stop stop-color="white" stop-opacity="0.25"/>
<stop offset="0.7" stop-color="#0A0A0A" stop-opacity="0"/>
</linearGradient>
<linearGradient id="paint10_linear_2135_2660" x1="23.2489" y1="225.921" x2="269.278" y2="270.331" gradientUnits="userSpaceOnUse">
<stop stop-color="white" stop-opacity="0.25"/>
<stop offset="0.7" stop-color="#0A0A0A" stop-opacity="0"/>
</linearGradient>
<linearGradient id="paint11_linear_2135_2660" x1="28.091" y1="204.691" x2="269.313" y2="270.376" gradientUnits="userSpaceOnUse">
<stop stop-color="white" stop-opacity="0.25"/>
<stop offset="0.7" stop-color="#0A0A0A" stop-opacity="0"/>
</linearGradient>
<linearGradient id="paint12_linear_2135_2660" x1="34.7634" y1="183.971" x2="269.343" y2="270.429" gradientUnits="userSpaceOnUse">
<stop stop-color="white" stop-opacity="0.25"/>
<stop offset="0.7" stop-color="#0A0A0A" stop-opacity="0"/>
</linearGradient>
<linearGradient id="paint13_linear_2135_2660" x1="43.2166" y1="163.91" x2="269.368" y2="270.484" gradientUnits="userSpaceOnUse">
<stop stop-color="white" stop-opacity="0.25"/>
<stop offset="0.7" stop-color="#0A0A0A" stop-opacity="0"/>
</linearGradient>
<linearGradient id="paint14_linear_2135_2660" x1="53.3853" y1="144.664" x2="269.388" y2="270.543" gradientUnits="userSpaceOnUse">
<stop stop-color="white" stop-opacity="0.25"/>
<stop offset="0.7" stop-color="#0A0A0A" stop-opacity="0"/>
</linearGradient>
<linearGradient id="paint15_linear_2135_2660" x1="65.194" y1="126.368" x2="269.404" y2="270.594" gradientUnits="userSpaceOnUse">
<stop stop-color="white" stop-opacity="0.25"/>
<stop offset="0.7" stop-color="#0A0A0A" stop-opacity="0"/>
</linearGradient>
<linearGradient id="paint16_linear_2135_2660" x1="78.5518" y1="109.181" x2="269.414" y2="270.656" gradientUnits="userSpaceOnUse">
<stop stop-color="white" stop-opacity="0.25"/>
<stop offset="0.7" stop-color="#0A0A0A" stop-opacity="0"/>
</linearGradient>
<linearGradient id="paint17_linear_2135_2660" x1="93.3568" y1="93.22" x2="269.419" y2="270.716" gradientUnits="userSpaceOnUse">
<stop stop-color="white" stop-opacity="0.25"/>
<stop offset="0.7" stop-color="#0A0A0A" stop-opacity="0"/>
</linearGradient>
<linearGradient id="paint18_linear_2135_2660" x1="109.497" y1="78.6072" x2="269.42" y2="270.772" gradientUnits="userSpaceOnUse">
<stop stop-color="white" stop-opacity="0.25"/>
<stop offset="0.7" stop-color="#0A0A0A" stop-opacity="0"/>
</linearGradient>
<linearGradient id="paint19_linear_2135_2660" x1="126.849" y1="65.4583" x2="269.415" y2="270.83" gradientUnits="userSpaceOnUse">
<stop stop-color="white" stop-opacity="0.25"/>
<stop offset="0.7" stop-color="#0A0A0A" stop-opacity="0"/>
</linearGradient>
<linearGradient id="paint20_linear_2135_2660" x1="145.28" y1="53.8736" x2="269.404" y2="270.89" gradientUnits="userSpaceOnUse">
<stop stop-color="white" stop-opacity="0.25"/>
<stop offset="0.7" stop-color="#0A0A0A" stop-opacity="0"/>
</linearGradient>
<linearGradient id="paint21_linear_2135_2660" x1="164.652" y1="43.9286" x2="269.39" y2="270.937" gradientUnits="userSpaceOnUse">
<stop stop-color="white" stop-opacity="0.25"/>
<stop offset="0.7" stop-color="#0A0A0A" stop-opacity="0"/>
</linearGradient>
<linearGradient id="paint22_linear_2135_2660" x1="184.816" y1="35.7272" x2="269.37" y2="271" gradientUnits="userSpaceOnUse">
<stop stop-color="white" stop-opacity="0.25"/>
<stop offset="0.7" stop-color="#0A0A0A" stop-opacity="0"/>
</linearGradient>
<linearGradient id="paint23_linear_2135_2660" x1="205.619" y1="29.3146" x2="269.346" y2="271.062" gradientUnits="userSpaceOnUse">
<stop stop-color="white" stop-opacity="0.25"/>
<stop offset="0.7" stop-color="#0A0A0A" stop-opacity="0"/>
</linearGradient>
<linearGradient id="paint24_linear_2135_2660" x1="226.901" y1="24.7307" x2="269.315" y2="271.112" gradientUnits="userSpaceOnUse">
<stop stop-color="white" stop-opacity="0.25"/>
<stop offset="0.7" stop-color="#0A0A0A" stop-opacity="0"/>
</linearGradient>
<linearGradient id="paint25_linear_2135_2660" x1="248.503" y1="22.0178" x2="269.283" y2="271.158" gradientUnits="userSpaceOnUse">
<stop stop-color="white" stop-opacity="0.25"/>
<stop offset="0.7" stop-color="#0A0A0A" stop-opacity="0"/>
</linearGradient>
<linearGradient id="paint26_linear_2135_2660" x1="270.259" y1="21.1961" x2="269.246" y2="271.199" gradientUnits="userSpaceOnUse">
<stop stop-color="white" stop-opacity="0.25"/>
<stop offset="0.7" stop-color="#0A0A0A" stop-opacity="0"/>
</linearGradient>
<linearGradient id="paint27_linear_2135_2660" x1="292.002" y1="22.2787" x2="269.203" y2="271.242" gradientUnits="userSpaceOnUse">
<stop stop-color="white" stop-opacity="0.25"/>
<stop offset="0.7" stop-color="#0A0A0A" stop-opacity="0"/>
</linearGradient>
<linearGradient id="paint28_linear_2135_2660" x1="313.57" y1="25.2568" x2="269.159" y2="271.286" gradientUnits="userSpaceOnUse">
<stop stop-color="white" stop-opacity="0.25"/>
<stop offset="0.7" stop-color="#0A0A0A" stop-opacity="0"/>
</linearGradient>
<linearGradient id="paint29_linear_2135_2660" x1="334.795" y1="30.0911" x2="269.111" y2="271.314" gradientUnits="userSpaceOnUse">
<stop stop-color="white" stop-opacity="0.25"/>
<stop offset="0.7" stop-color="#0A0A0A" stop-opacity="0"/>
</linearGradient>
<linearGradient id="paint30_linear_2135_2660" x1="355.52" y1="36.7595" x2="269.061" y2="271.339" gradientUnits="userSpaceOnUse">
<stop stop-color="white" stop-opacity="0.25"/>
<stop offset="0.7" stop-color="#0A0A0A" stop-opacity="0"/>
</linearGradient>
<linearGradient id="paint31_linear_2135_2660" x1="375.582" y1="45.2109" x2="269.008" y2="271.363" gradientUnits="userSpaceOnUse">
<stop stop-color="white" stop-opacity="0.25"/>
<stop offset="0.7" stop-color="#0A0A0A" stop-opacity="0"/>
</linearGradient>
<linearGradient id="paint32_linear_2135_2660" x1="394.831" y1="55.3889" x2="268.952" y2="271.392" gradientUnits="userSpaceOnUse">
<stop stop-color="white" stop-opacity="0.25"/>
<stop offset="0.7" stop-color="#0A0A0A" stop-opacity="0"/>
</linearGradient>
<linearGradient id="paint33_linear_2135_2660" x1="413.121" y1="67.1947" x2="268.895" y2="271.404" gradientUnits="userSpaceOnUse">
<stop stop-color="white" stop-opacity="0.25"/>
<stop offset="0.7" stop-color="#0A0A0A" stop-opacity="0"/>
</linearGradient>
<linearGradient id="paint34_linear_2135_2660" x1="430.313" y1="80.5496" x2="268.837" y2="271.412" gradientUnits="userSpaceOnUse">
<stop stop-color="white" stop-opacity="0.25"/>
<stop offset="0.7" stop-color="#0A0A0A" stop-opacity="0"/>
</linearGradient>
<linearGradient id="paint35_linear_2135_2660" x1="446.276" y1="95.3583" x2="268.78" y2="271.421" gradientUnits="userSpaceOnUse">
<stop stop-color="white" stop-opacity="0.25"/>
<stop offset="0.7" stop-color="#0A0A0A" stop-opacity="0"/>
</linearGradient>
<linearGradient id="paint36_linear_2135_2660" x1="460.886" y1="111.495" x2="268.721" y2="271.418" gradientUnits="userSpaceOnUse">
<stop stop-color="white" stop-opacity="0.25"/>
<stop offset="0.7" stop-color="#0A0A0A" stop-opacity="0"/>
</linearGradient>
<linearGradient id="paint37_linear_2135_2660" x1="474.033" y1="128.851" x2="268.661" y2="271.417" gradientUnits="userSpaceOnUse">
<stop stop-color="white" stop-opacity="0.25"/>
<stop offset="0.7" stop-color="#0A0A0A" stop-opacity="0"/>
</linearGradient>
<linearGradient id="paint38_linear_2135_2660" x1="485.62" y1="147.283" x2="268.604" y2="271.407" gradientUnits="userSpaceOnUse">
<stop stop-color="white" stop-opacity="0.25"/>
<stop offset="0.7" stop-color="#0A0A0A" stop-opacity="0"/>
</linearGradient>
<linearGradient id="paint39_linear_2135_2660" x1="495.132" y1="165.724" x2="268.55" y2="271.381" gradientUnits="userSpaceOnUse">
<stop stop-color="white" stop-opacity="0.25"/>
<stop offset="0.7" stop-color="#0A0A0A" stop-opacity="0"/>
</linearGradient>
<linearGradient id="paint40_linear_2135_2660" x1="503.423" y1="185.859" x2="268.495" y2="271.366" gradientUnits="userSpaceOnUse">
<stop stop-color="white" stop-opacity="0.25"/>
<stop offset="0.7" stop-color="#0A0A0A" stop-opacity="0"/>
</linearGradient>
<linearGradient id="paint41_linear_2135_2660" x1="509.928" y1="206.638" x2="268.441" y2="271.344" gradientUnits="userSpaceOnUse">
<stop stop-color="white" stop-opacity="0.25"/>
<stop offset="0.7" stop-color="#0A0A0A" stop-opacity="0"/>
</linearGradient>
<linearGradient id="paint42_linear_2135_2660" x1="514.598" y1="227.903" x2="268.39" y2="271.316" gradientUnits="userSpaceOnUse">
<stop stop-color="white" stop-opacity="0.25"/>
<stop offset="0.7" stop-color="#0A0A0A" stop-opacity="0"/>
</linearGradient>
<linearGradient id="paint43_linear_2135_2660" x1="517.396" y1="249.496" x2="268.342" y2="271.285" gradientUnits="userSpaceOnUse">
<stop stop-color="white" stop-opacity="0.25"/>
<stop offset="0.7" stop-color="#0A0A0A" stop-opacity="0"/>
</linearGradient>
<linearGradient id="paint44_linear_2135_2660" x1="518.302" y1="271.251" x2="268.296" y2="271.251" gradientUnits="userSpaceOnUse">
<stop stop-color="white" stop-opacity="0.25"/>
<stop offset="0.7" stop-color="#0A0A0A" stop-opacity="0"/>
</linearGradient>
<linearGradient id="paint45_linear_2135_2660" x1="517.309" y1="292.995" x2="268.255" y2="271.205" gradientUnits="userSpaceOnUse">
<stop stop-color="white" stop-opacity="0.25"/>
<stop offset="0.7" stop-color="#0A0A0A" stop-opacity="0"/>
</linearGradient>
<linearGradient id="paint46_linear_2135_2660" x1="514.424" y1="314.576" x2="268.217" y2="271.163" gradientUnits="userSpaceOnUse">
<stop stop-color="white" stop-opacity="0.25"/>
<stop offset="0.7" stop-color="#0A0A0A" stop-opacity="0"/>
</linearGradient>
<linearGradient id="paint47_linear_2135_2660" x1="509.669" y1="335.814" x2="268.182" y2="271.108" gradientUnits="userSpaceOnUse">
<stop stop-color="white" stop-opacity="0.25"/>
<stop offset="0.7" stop-color="#0A0A0A" stop-opacity="0"/>
</linearGradient>
<linearGradient id="paint48_linear_2135_2660" x1="503.08" y1="356.567" x2="268.152" y2="271.06" gradientUnits="userSpaceOnUse">
<stop stop-color="white" stop-opacity="0.25"/>
<stop offset="0.7" stop-color="#0A0A0A" stop-opacity="0"/>
</linearGradient>
<linearGradient id="paint49_linear_2135_2660" x1="494.709" y1="376.668" x2="268.128" y2="271.011" gradientUnits="userSpaceOnUse">
<stop stop-color="white" stop-opacity="0.25"/>
<stop offset="0.7" stop-color="#0A0A0A" stop-opacity="0"/>
</linearGradient>
<linearGradient id="paint50_linear_2135_2660" x1="484.619" y1="395.953" x2="268.108" y2="270.95" gradientUnits="userSpaceOnUse">
<stop stop-color="white" stop-opacity="0.25"/>
<stop offset="0.7" stop-color="#0A0A0A" stop-opacity="0"/>
</linearGradient>
<linearGradient id="paint51_linear_2135_2660" x1="472.884" y1="414.294" x2="268.091" y2="270.897" gradientUnits="userSpaceOnUse">
<stop stop-color="white" stop-opacity="0.25"/>
<stop offset="0.7" stop-color="#0A0A0A" stop-opacity="0"/>
</linearGradient>
<linearGradient id="paint52_linear_2135_2660" x1="459.596" y1="431.539" x2="268.08" y2="270.839" gradientUnits="userSpaceOnUse">
<stop stop-color="white" stop-opacity="0.25"/>
<stop offset="0.7" stop-color="#0A0A0A" stop-opacity="0"/>
</linearGradient>
<clipPath id="clip0_2135_2660">
<rect width="540.89" height="540.89" fill="white"/>
</clipPath>
</defs>
</svg>
