<svg width="541" height="541" viewBox="0 0 541 541" fill="none" xmlns="http://www.w3.org/2000/svg">
<g clip-path="url(#clip0_2135_3046)">
<g filter="url(#filter0_d_2135_3046)">
<circle cx="270.27" cy="270.724" r="270.446" fill="#0A0A0A"/>
<circle cx="270.27" cy="270.724" r="269.991" stroke="#2B2B2B" stroke-width="0.909061"/>
</g>
<line x1="268.633" y1="268.676" x2="76.3869" y2="428.501" stroke="url(#paint0_linear_2135_3046)" stroke-width="0.909111"/>
<line x1="268.613" y1="268.784" x2="51.5341" y2="392.798" stroke="url(#paint1_linear_2135_3046)" stroke-width="0.909111"/>
<line x1="268.596" y1="268.832" x2="41.5348" y2="373.454" stroke="url(#paint2_linear_2135_3046)" stroke-width="0.909111"/>
<line x1="268.626" y1="268.736" x2="63.1814" y2="411.198" stroke="url(#paint3_linear_2135_3046)" stroke-width="0.909111"/>
<line x1="268.574" y1="268.893" x2="33.2581" y2="353.327" stroke="url(#paint4_linear_2135_3046)" stroke-width="0.909111"/>
<line x1="268.549" y1="268.938" x2="26.7696" y2="332.542" stroke="url(#paint5_linear_2135_3046)" stroke-width="0.909111"/>
<line x1="268.517" y1="268.992" x2="22.1145" y2="311.281" stroke="url(#paint6_linear_2135_3046)" stroke-width="0.909111"/>
<line x1="268.483" y1="269.036" x2="19.3322" y2="289.689" stroke="url(#paint7_linear_2135_3046)" stroke-width="0.909111"/>
<line x1="268.446" y1="269.069" x2="18.4436" y2="267.928" stroke="url(#paint8_linear_2135_3046)" stroke-width="0.909111"/>
<line x1="268.404" y1="269.108" x2="19.4524" y2="246.182" stroke="url(#paint9_linear_2135_3046)" stroke-width="0.909111"/>
<line x1="268.36" y1="269.138" x2="22.3534" y2="224.602" stroke="url(#paint10_linear_2135_3046)" stroke-width="0.909111"/>
<line x1="268.312" y1="269.167" x2="27.1232" y2="203.36" stroke="url(#paint11_linear_2135_3046)" stroke-width="0.909111"/>
<line x1="268.263" y1="269.191" x2="33.7275" y2="182.613" stroke="url(#paint12_linear_2135_3046)" stroke-width="0.909111"/>
<line x1="268.21" y1="269.219" x2="42.1128" y2="162.529" stroke="url(#paint13_linear_2135_3046)" stroke-width="0.909111"/>
<line x1="268.157" y1="269.237" x2="52.2181" y2="143.247" stroke="url(#paint14_linear_2135_3046)" stroke-width="0.909111"/>
<line x1="268.102" y1="269.241" x2="63.9656" y2="124.911" stroke="url(#paint15_linear_2135_3046)" stroke-width="0.909111"/>
<line x1="268.047" y1="269.252" x2="77.267" y2="107.679" stroke="url(#paint16_linear_2135_3046)" stroke-width="0.909111"/>
<line x1="267.991" y1="269.263" x2="92.0193" y2="91.6776" stroke="url(#paint17_linear_2135_3046)" stroke-width="0.909111"/>
<line x1="267.935" y1="269.251" x2="108.11" y2="77.0046" stroke="url(#paint18_linear_2135_3046)" stroke-width="0.909111"/>
<line x1="267.88" y1="269.245" x2="125.418" y2="63.8001" stroke="url(#paint19_linear_2135_3046)" stroke-width="0.909111"/>
<line x1="267.826" y1="269.228" x2="143.812" y2="52.149" stroke="url(#paint20_linear_2135_3046)" stroke-width="0.909111"/>
<line x1="267.773" y1="269.22" x2="163.151" y2="42.1584" stroke="url(#paint21_linear_2135_3046)" stroke-width="0.909111"/>
<line x1="267.721" y1="269.194" x2="183.287" y2="33.8779" stroke="url(#paint22_linear_2135_3046)" stroke-width="0.909111"/>
<line x1="267.671" y1="269.172" x2="204.068" y2="27.3923" stroke="url(#paint23_linear_2135_3046)" stroke-width="0.909111"/>
<line x1="267.625" y1="269.137" x2="225.335" y2="22.7341" stroke="url(#paint24_linear_2135_3046)" stroke-width="0.909111"/>
<line x1="267.58" y1="269.105" x2="246.927" y2="19.9539" stroke="url(#paint25_linear_2135_3046)" stroke-width="0.909111"/>
<line x1="267.539" y1="269.067" x2="268.68" y2="19.0642" stroke="url(#paint26_linear_2135_3046)" stroke-width="0.909111"/>
<line x1="267.503" y1="269.023" x2="290.428" y2="20.0712" stroke="url(#paint27_linear_2135_3046)" stroke-width="0.909111"/>
<line x1="267.468" y1="268.981" x2="312.004" y2="22.9742" stroke="url(#paint28_linear_2135_3046)" stroke-width="0.909111"/>
<line x1="267.44" y1="268.931" x2="333.247" y2="27.742" stroke="url(#paint29_linear_2135_3046)" stroke-width="0.909111"/>
<line x1="267.415" y1="268.881" x2="353.993" y2="34.3454" stroke="url(#paint30_linear_2135_3046)" stroke-width="0.909111"/>
<line x1="267.393" y1="268.831" x2="374.083" y2="42.7336" stroke="url(#paint31_linear_2135_3046)" stroke-width="0.909111"/>
<line x1="267.377" y1="268.774" x2="393.366" y2="52.835" stroke="url(#paint32_linear_2135_3046)" stroke-width="0.909111"/>
<line x1="267.366" y1="268.719" x2="411.696" y2="64.5824" stroke="url(#paint33_linear_2135_3046)" stroke-width="0.909111"/>
<line x1="267.357" y1="268.662" x2="428.93" y2="77.882" stroke="url(#paint34_linear_2135_3046)" stroke-width="0.909111"/>
<line x1="267.357" y1="268.611" x2="444.942" y2="92.6389" stroke="url(#paint35_linear_2135_3046)" stroke-width="0.909111"/>
<line x1="267.36" y1="268.552" x2="459.606" y2="108.727" stroke="url(#paint36_linear_2135_3046)" stroke-width="0.909111"/>
<line x1="267.367" y1="268.5" x2="472.812" y2="126.039" stroke="url(#paint37_linear_2135_3046)" stroke-width="0.909111"/>
<line x1="267.38" y1="268.445" x2="484.459" y2="144.431" stroke="url(#paint38_linear_2135_3046)" stroke-width="0.909111"/>
<line x1="267.397" y1="268.389" x2="494.458" y2="163.767" stroke="url(#paint39_linear_2135_3046)" stroke-width="0.909111"/>
<line x1="267.419" y1="268.336" x2="502.735" y2="183.901" stroke="url(#paint40_linear_2135_3046)" stroke-width="0.909111"/>
<line x1="267.445" y1="268.29" x2="509.225" y2="204.687" stroke="url(#paint41_linear_2135_3046)" stroke-width="0.909111"/>
<line x1="267.476" y1="268.237" x2="513.879" y2="225.947" stroke="url(#paint42_linear_2135_3046)" stroke-width="0.909111"/>
<line x1="267.51" y1="268.193" x2="516.661" y2="247.54" stroke="url(#paint43_linear_2135_3046)" stroke-width="0.909111"/>
<line x1="267.547" y1="268.16" x2="517.55" y2="269.3" stroke="url(#paint44_linear_2135_3046)" stroke-width="0.909111"/>
<line x1="267.589" y1="268.121" x2="516.541" y2="291.046" stroke="url(#paint45_linear_2135_3046)" stroke-width="0.909111"/>
<line x1="267.635" y1="268.09" x2="513.642" y2="312.626" stroke="url(#paint46_linear_2135_3046)" stroke-width="0.909111"/>
<line x1="267.682" y1="268.061" x2="508.871" y2="333.869" stroke="url(#paint47_linear_2135_3046)" stroke-width="0.909111"/>
<line x1="267.731" y1="268.037" x2="502.266" y2="354.615" stroke="url(#paint48_linear_2135_3046)" stroke-width="0.909111"/>
<line x1="267.782" y1="268.01" x2="493.88" y2="374.699" stroke="url(#paint49_linear_2135_3046)" stroke-width="0.909111"/>
<line x1="267.837" y1="267.992" x2="483.776" y2="393.981" stroke="url(#paint50_linear_2135_3046)" stroke-width="0.909111"/>
<line x1="267.891" y1="267.987" x2="472.027" y2="412.317" stroke="url(#paint51_linear_2135_3046)" stroke-width="0.909111"/>
<line x1="267.946" y1="267.977" x2="458.726" y2="429.549" stroke="url(#paint52_linear_2135_3046)" stroke-width="0.909111"/>
<path d="M266.461 19.2768C266.373 18.2168 267.209 17.3076 268.273 17.3076H270.684C271.748 17.3076 272.585 18.2168 272.496 19.2768L270.956 37.7673C270.892 38.5354 270.249 39.1263 269.479 39.1263V39.1263C268.708 39.1263 268.066 38.5354 268.002 37.7673L266.461 19.2768Z" fill="white"/>
<path d="M518.41 265.192C519.47 265.104 520.379 265.941 520.379 267.004V269.416C520.379 270.48 519.47 271.316 518.41 271.228L499.919 269.687C499.151 269.623 498.56 268.981 498.56 268.21V268.21C498.56 267.439 499.151 266.797 499.919 266.733L518.41 265.192Z" fill="white"/>
<path d="M20.0925 271.231C19.0324 271.32 18.1233 270.483 18.1233 269.419L18.1233 267.008C18.1233 265.944 19.0324 265.107 20.0925 265.196L38.583 266.737C39.3511 266.801 39.9419 267.443 39.9419 268.213V268.213C39.9419 268.984 39.3511 269.626 38.583 269.69L20.0925 271.231Z" fill="white"/>
<path d="M504.226 350.638C505.331 350.843 505.986 351.991 505.602 353.047L504.894 354.993C504.509 356.049 503.269 356.507 502.291 355.955L495.717 352.241C495.032 351.854 494.727 351.029 494.996 350.289V350.289C495.266 349.55 496.03 349.113 496.804 349.257L504.226 350.638Z" fill="white"/>
<path d="M34.3037 185.61C33.1991 185.405 32.5434 184.257 32.9277 183.201L33.6361 181.255C34.0203 180.199 35.2607 179.741 36.2389 180.294L42.8124 184.007C43.4975 184.394 43.8024 185.22 43.5333 185.959V185.959C43.2641 186.699 42.4999 187.135 41.7262 186.991L34.3037 185.61Z" fill="white"/>
<path d="M462.111 425.904C462.98 426.517 463.139 427.742 462.455 428.557L460.905 430.405C460.221 431.22 458.987 431.276 458.232 430.527L445.058 417.461C444.51 416.918 444.471 416.047 444.966 415.456V415.456C445.461 414.866 446.327 414.754 446.956 415.198L462.111 425.904Z" fill="white"/>
<path d="M76.4985 110.215C75.6297 109.601 75.4709 108.376 76.1547 107.561L77.7049 105.714C78.3887 104.899 79.6228 104.842 80.3781 105.591L93.5522 118.657C94.0995 119.2 94.1393 120.072 93.6439 120.662V120.662C93.1484 121.253 92.2831 121.365 91.6535 120.92L76.4985 110.215Z" fill="white"/>
<path d="M142.411 53.777C141.697 52.9096 141.933 51.6086 142.906 51.0468L144.7 50.0112C145.673 49.4495 146.917 49.8959 147.311 50.948L149.96 58.0179C150.236 58.7548 149.939 59.5833 149.257 59.9768V59.9768C148.576 60.3702 147.71 60.2133 147.21 59.6058L142.411 53.777Z" fill="white"/>
<path d="M391.421 51.3399C391.815 50.2878 393.059 49.8414 394.032 50.4032L395.826 51.4387C396.799 52.0005 397.035 53.3015 396.321 54.169L391.522 59.9977C391.022 60.6053 390.156 60.7622 389.475 60.3687V60.3687C388.793 59.9753 388.496 59.1468 388.772 58.4099L391.421 51.3399Z" fill="white"/>
<path d="M458.232 105.889C458.987 105.14 460.221 105.196 460.905 106.011L462.455 107.859C463.139 108.674 462.98 109.899 462.112 110.512L446.957 121.218C446.327 121.662 445.462 121.55 444.966 120.96V120.96C444.471 120.369 444.511 119.498 445.058 118.955L458.232 105.889Z" fill="white"/>
<path d="M80.3789 430.825C79.6236 431.574 78.3894 431.517 77.7057 430.702L76.1555 428.855C75.4717 428.04 75.6304 426.815 76.4993 426.201L91.6543 415.496C92.2838 415.051 93.1492 415.164 93.6446 415.754V415.754C94.1401 416.344 94.1002 417.216 93.5529 417.759L80.3789 430.825Z" fill="white"/>
<path d="M502.292 180.462C503.27 179.91 504.51 180.368 504.895 181.424L505.603 183.37C505.987 184.426 505.332 185.574 504.227 185.779L496.805 187.16C496.031 187.304 495.267 186.867 494.997 186.128V186.128C494.728 185.388 495.033 184.563 495.718 184.176L502.292 180.462Z" fill="white"/>
<path d="M36.2404 356.117C35.2621 356.669 34.0218 356.211 33.6375 355.155L32.9291 353.209C32.5449 352.153 33.2006 351.005 34.3052 350.8L41.7277 349.419C42.5013 349.275 43.2656 349.712 43.5347 350.451V350.451C43.8039 351.191 43.499 352.016 42.8138 352.403L36.2404 356.117Z" fill="white"/>
<path d="M103.39 402.825C103.39 402.698 103.417 402.298 103.471 401.625C103.526 400.952 103.644 400.152 103.826 399.225C104.026 398.298 104.308 397.316 104.671 396.28C105.053 395.225 105.571 394.252 106.226 393.361C106.88 392.471 107.689 391.734 108.653 391.152C109.635 390.571 110.817 390.28 112.198 390.28C114.235 390.28 115.68 390.916 116.535 392.189C117.407 393.461 117.844 395.261 117.844 397.589C117.844 397.989 117.798 398.579 117.707 399.361C117.616 400.125 117.453 400.97 117.216 401.898C116.998 402.825 116.68 403.779 116.262 404.761C115.844 405.743 115.307 406.634 114.653 407.434C114.016 408.216 113.235 408.861 112.307 409.37C111.38 409.879 110.289 410.134 109.035 410.134C108.017 410.134 107.144 409.961 106.417 409.615C105.708 409.252 105.126 408.752 104.671 408.116C104.235 407.461 103.908 406.688 103.689 405.797C103.49 404.907 103.39 403.916 103.39 402.825ZM114.735 396.689C114.735 396.198 114.689 395.725 114.598 395.27C114.507 394.798 114.353 394.389 114.135 394.043C113.916 393.68 113.616 393.398 113.235 393.198C112.871 392.98 112.407 392.871 111.844 392.871C111.189 392.871 110.598 393.071 110.071 393.471C109.562 393.852 109.108 394.361 108.708 394.998C108.308 395.634 107.962 396.352 107.671 397.152C107.398 397.934 107.171 398.734 106.989 399.552C106.826 400.352 106.698 401.125 106.608 401.87C106.535 402.598 106.498 403.216 106.498 403.725C106.498 404.216 106.544 404.697 106.635 405.17C106.726 405.625 106.88 406.034 107.098 406.397C107.317 406.743 107.608 407.025 107.971 407.243C108.353 407.443 108.826 407.543 109.389 407.543C110.044 407.543 110.626 407.352 111.135 406.97C111.662 406.57 112.126 406.052 112.526 405.416C112.926 404.779 113.262 404.07 113.535 403.288C113.826 402.488 114.053 401.688 114.216 400.888C114.398 400.07 114.526 399.298 114.598 398.57C114.689 397.825 114.735 397.198 114.735 396.689Z" fill="white"/>
<path d="M65.782 261.335C67.0729 261.335 68.282 261.089 69.4092 260.599C70.5364 260.089 71.4182 259.28 72.0546 258.171H74.5363L70.5273 277.262H67.2275L70.1183 263.326C69.3001 263.508 68.4911 263.635 67.6911 263.708C66.9093 263.762 66.1002 263.789 65.2639 263.789L65.782 261.335Z" fill="white"/>
<path d="M119.244 142.723H105.99C106.244 141.123 106.817 139.733 107.708 138.551C108.617 137.369 109.753 136.369 111.117 135.551C111.826 135.115 112.553 134.669 113.298 134.215C114.062 133.742 114.835 133.269 115.616 132.796C116.398 132.324 117.035 131.76 117.526 131.106C118.035 130.451 118.289 129.587 118.289 128.515C118.289 128.078 118.198 127.697 118.016 127.369C117.853 127.024 117.626 126.742 117.335 126.524C117.062 126.288 116.735 126.115 116.353 126.006C115.971 125.897 115.58 125.842 115.18 125.842C114.58 125.842 114.044 125.96 113.571 126.197C113.098 126.415 112.689 126.724 112.344 127.124C112.017 127.506 111.753 127.969 111.553 128.515C111.371 129.042 111.262 129.615 111.226 130.233H108.28C108.371 129.197 108.589 128.251 108.935 127.397C109.28 126.524 109.753 125.788 110.353 125.188C110.953 124.569 111.68 124.097 112.535 123.769C113.389 123.424 114.362 123.251 115.453 123.251C116.289 123.251 117.062 123.36 117.771 123.579C118.498 123.797 119.125 124.124 119.653 124.56C120.198 124.997 120.625 125.551 120.934 126.224C121.244 126.897 121.398 127.678 121.398 128.569C121.398 129.624 121.189 130.542 120.771 131.324C120.371 132.106 119.835 132.806 119.162 133.424C118.507 134.024 117.762 134.578 116.926 135.087C116.107 135.578 115.28 136.069 114.444 136.56C113.626 137.051 112.835 137.569 112.071 138.114C111.308 138.642 110.671 139.251 110.162 139.942H119.844L119.244 142.723Z" fill="white"/>
<path d="M268.601 65.8526H269.255C269.819 65.8526 270.365 65.8162 270.892 65.7435C271.419 65.6708 271.883 65.5253 272.283 65.3072C272.701 65.089 273.028 64.7799 273.264 64.3799C273.519 63.9799 273.646 63.4436 273.646 62.7709C273.646 61.88 273.355 61.2255 272.774 60.8073C272.21 60.371 271.537 60.1528 270.755 60.1528C269.646 60.1528 268.765 60.4982 268.11 61.1891C267.474 61.88 267.056 62.7527 266.856 63.8072H263.91C264.074 62.88 264.337 62.0345 264.701 61.2709C265.083 60.4891 265.574 59.8255 266.174 59.2801C266.774 58.7347 267.483 58.3165 268.301 58.0256C269.119 57.7165 270.046 57.562 271.083 57.562C271.81 57.562 272.51 57.662 273.183 57.862C273.873 58.0438 274.483 58.3256 275.01 58.7074C275.537 59.0892 275.955 59.5801 276.264 60.1801C276.592 60.78 276.755 61.4891 276.755 62.3073C276.755 63.5072 276.428 64.5163 275.773 65.3344C275.119 66.1344 274.273 66.6617 273.237 66.9162V66.9708C274.11 67.298 274.719 67.8071 275.064 68.498C275.428 69.1889 275.61 69.9979 275.61 70.9252C275.61 71.9797 275.401 72.916 274.983 73.7342C274.583 74.5341 274.028 75.2068 273.319 75.7523C272.628 76.2977 271.819 76.7159 270.892 77.0068C269.965 77.2795 268.974 77.4159 267.919 77.4159C266.119 77.4159 264.683 76.9432 263.61 75.9977C262.538 75.0341 262.001 73.7069 262.001 72.016C262.001 71.7251 262.01 71.4979 262.028 71.3342C262.028 71.1706 262.038 70.9797 262.056 70.7615H265.001C264.983 70.907 264.965 71.0524 264.947 71.1979C264.947 71.3252 264.947 71.4524 264.947 71.5797C264.947 72.5797 265.256 73.3705 265.874 73.9523C266.51 74.5341 267.374 74.825 268.465 74.825C269.683 74.825 270.655 74.4705 271.383 73.7614C272.128 73.0342 272.501 72.0615 272.501 70.8434C272.501 70.2979 272.392 69.8525 272.174 69.507C271.974 69.1434 271.701 68.8707 271.355 68.6889C271.028 68.4889 270.646 68.3525 270.21 68.2798C269.792 68.2071 269.365 68.1707 268.928 68.1707H268.11L268.601 65.8526Z" fill="white"/>
<path d="M430.625 138.196H428.034L427.08 142.723H423.971L424.925 138.196H416.744L417.344 135.196L427.98 123.633H431.089L428.552 135.742H431.143L430.625 138.196ZM427.216 127.751H427.162L419.771 135.742H425.443L427.216 127.751Z" fill="white"/>
<path d="M461.987 258.171H472.487L471.941 260.953H463.978L462.56 265.453L462.614 265.507C463.142 265.107 463.696 264.826 464.278 264.662C464.878 264.498 465.505 264.417 466.16 264.417C466.978 264.417 467.714 264.562 468.369 264.853C469.042 265.126 469.605 265.517 470.06 266.026C470.532 266.535 470.896 267.135 471.151 267.826C471.405 268.498 471.532 269.235 471.532 270.035C471.532 271.18 471.341 272.225 470.96 273.171C470.578 274.098 470.041 274.898 469.351 275.571C468.66 276.225 467.842 276.734 466.896 277.098C465.951 277.462 464.923 277.643 463.814 277.643C462.905 277.643 462.069 277.516 461.305 277.262C460.542 277.025 459.887 276.671 459.342 276.198C458.796 275.707 458.369 275.107 458.06 274.398C457.769 273.671 457.642 272.825 457.678 271.862H460.787C460.842 272.898 461.124 273.689 461.633 274.234C462.142 274.78 462.942 275.053 464.033 275.053C464.669 275.053 465.251 274.934 465.778 274.698C466.323 274.462 466.787 274.144 467.169 273.744C467.569 273.325 467.878 272.844 468.096 272.298C468.314 271.753 468.423 271.162 468.423 270.525C468.423 269.326 468.114 268.416 467.496 267.798C466.896 267.18 466.105 266.871 465.123 266.871C464.36 266.871 463.678 267.026 463.078 267.335C462.496 267.626 462.005 268.044 461.605 268.589H458.851L461.987 258.171Z" fill="white"/>
<path d="M425.96 405.723C426.596 405.723 427.151 405.596 427.624 405.341C428.114 405.069 428.524 404.723 428.851 404.305C429.178 403.869 429.423 403.378 429.587 402.832C429.751 402.287 429.833 401.741 429.833 401.196C429.833 400.214 429.56 399.414 429.014 398.796C428.469 398.16 427.669 397.842 426.614 397.842C425.978 397.842 425.415 397.96 424.924 398.196C424.433 398.414 424.024 398.723 423.696 399.123C423.369 399.523 423.115 399.987 422.933 400.514C422.769 401.023 422.687 401.578 422.687 402.178C422.687 402.669 422.76 403.132 422.906 403.569C423.051 403.987 423.26 404.36 423.533 404.687C423.805 404.996 424.142 405.25 424.542 405.45C424.96 405.632 425.433 405.723 425.96 405.723ZM431.142 393.669C431.142 392.851 430.914 392.215 430.46 391.76C430.023 391.287 429.414 391.051 428.633 391.051C427.796 391.051 427.078 391.242 426.478 391.624C425.878 392.005 425.36 392.496 424.924 393.096C424.505 393.696 424.151 394.36 423.86 395.087C423.587 395.814 423.36 396.514 423.178 397.187L423.233 397.242C423.76 396.587 424.369 396.114 425.06 395.823C425.769 395.533 426.533 395.387 427.351 395.387C428.26 395.387 429.06 395.542 429.751 395.851C430.46 396.142 431.051 396.551 431.523 397.078C431.996 397.605 432.351 398.233 432.587 398.96C432.823 399.687 432.942 400.478 432.942 401.332C432.942 402.314 432.76 403.232 432.396 404.087C432.051 404.941 431.569 405.687 430.951 406.323C430.351 406.941 429.642 407.432 428.823 407.796C428.024 408.141 427.169 408.314 426.26 408.314C425.06 408.314 424.033 408.141 423.178 407.796C422.342 407.432 421.651 406.923 421.106 406.269C420.578 405.614 420.187 404.814 419.933 403.869C419.697 402.905 419.578 401.823 419.578 400.623C419.578 400.405 419.606 399.96 419.66 399.287C419.715 398.596 419.842 397.796 420.042 396.887C420.242 395.978 420.533 395.033 420.915 394.051C421.315 393.069 421.851 392.16 422.524 391.324C423.196 390.487 424.033 389.806 425.033 389.278C426.033 388.733 427.242 388.46 428.66 388.46C429.478 388.46 430.223 388.578 430.896 388.815C431.569 389.033 432.151 389.36 432.642 389.796C433.132 390.233 433.514 390.778 433.787 391.433C434.078 392.087 434.232 392.833 434.251 393.669H431.142Z" fill="white"/>
</g>
<defs>
<filter id="filter0_d_2135_3046" x="-116.176" y="-90.0816" width="700.891" height="700.891" filterUnits="userSpaceOnUse" color-interpolation-filters="sRGB">
<feFlood flood-opacity="0" result="BackgroundImageFix"/>
<feColorMatrix in="SourceAlpha" type="matrix" values="0 0 0 0 0 0 0 0 0 0 0 0 0 0 0 0 0 0 127 0" result="hardAlpha"/>
<feOffset dx="-36" dy="-10.36"/>
<feGaussianBlur stdDeviation="40"/>
<feComposite in2="hardAlpha" operator="out"/>
<feColorMatrix type="matrix" values="0 0 0 0 1 0 0 0 0 1 0 0 0 0 1 0 0 0 0.04 0"/>
<feBlend mode="normal" in2="BackgroundImageFix" result="effect1_dropShadow_2135_3046"/>
<feBlend mode="normal" in="SourceGraphic" in2="effect1_dropShadow_2135_3046" result="shape"/>
</filter>
<linearGradient id="paint0_linear_2135_3046" x1="75.7767" y1="427.767" x2="268.023" y2="267.942" gradientUnits="userSpaceOnUse">
<stop stop-color="white" stop-opacity="0.25"/>
<stop offset="0.7" stop-color="#0A0A0A" stop-opacity="0"/>
</linearGradient>
<linearGradient id="paint1_linear_2135_3046" x1="51.0606" y1="391.969" x2="268.14" y2="267.955" gradientUnits="userSpaceOnUse">
<stop stop-color="white" stop-opacity="0.25"/>
<stop offset="0.7" stop-color="#0A0A0A" stop-opacity="0"/>
</linearGradient>
<linearGradient id="paint2_linear_2135_3046" x1="41.1353" y1="372.587" x2="268.197" y2="267.965" gradientUnits="userSpaceOnUse">
<stop stop-color="white" stop-opacity="0.25"/>
<stop offset="0.7" stop-color="#0A0A0A" stop-opacity="0"/>
</linearGradient>
<linearGradient id="paint3_linear_2135_3046" x1="62.6374" y1="410.413" x2="268.082" y2="267.952" gradientUnits="userSpaceOnUse">
<stop stop-color="white" stop-opacity="0.25"/>
<stop offset="0.7" stop-color="#0A0A0A" stop-opacity="0"/>
</linearGradient>
<linearGradient id="paint4_linear_2135_3046" x1="32.9357" y1="352.429" x2="268.252" y2="267.995" gradientUnits="userSpaceOnUse">
<stop stop-color="white" stop-opacity="0.25"/>
<stop offset="0.7" stop-color="#0A0A0A" stop-opacity="0"/>
</linearGradient>
<linearGradient id="paint5_linear_2135_3046" x1="26.5267" y1="331.619" x2="268.306" y2="268.015" gradientUnits="userSpaceOnUse">
<stop stop-color="white" stop-opacity="0.25"/>
<stop offset="0.7" stop-color="#0A0A0A" stop-opacity="0"/>
</linearGradient>
<linearGradient id="paint6_linear_2135_3046" x1="21.953" y1="310.341" x2="268.356" y2="268.051" gradientUnits="userSpaceOnUse">
<stop stop-color="white" stop-opacity="0.25"/>
<stop offset="0.7" stop-color="#0A0A0A" stop-opacity="0"/>
</linearGradient>
<linearGradient id="paint7_linear_2135_3046" x1="19.2533" y1="288.738" x2="268.404" y2="268.085" gradientUnits="userSpaceOnUse">
<stop stop-color="white" stop-opacity="0.25"/>
<stop offset="0.7" stop-color="#0A0A0A" stop-opacity="0"/>
</linearGradient>
<linearGradient id="paint8_linear_2135_3046" x1="18.4479" y1="266.974" x2="268.451" y2="268.114" gradientUnits="userSpaceOnUse">
<stop stop-color="white" stop-opacity="0.25"/>
<stop offset="0.7" stop-color="#0A0A0A" stop-opacity="0"/>
</linearGradient>
<linearGradient id="paint9_linear_2135_3046" x1="19.5399" y1="245.232" x2="268.492" y2="268.157" gradientUnits="userSpaceOnUse">
<stop stop-color="white" stop-opacity="0.25"/>
<stop offset="0.7" stop-color="#0A0A0A" stop-opacity="0"/>
</linearGradient>
<linearGradient id="paint10_linear_2135_3046" x1="22.5234" y1="223.663" x2="268.53" y2="268.199" gradientUnits="userSpaceOnUse">
<stop stop-color="white" stop-opacity="0.25"/>
<stop offset="0.7" stop-color="#0A0A0A" stop-opacity="0"/>
</linearGradient>
<linearGradient id="paint11_linear_2135_3046" x1="27.3745" y1="202.439" x2="268.563" y2="268.246" gradientUnits="userSpaceOnUse">
<stop stop-color="white" stop-opacity="0.25"/>
<stop offset="0.7" stop-color="#0A0A0A" stop-opacity="0"/>
</linearGradient>
<linearGradient id="paint12_linear_2135_3046" x1="34.0581" y1="181.718" x2="268.594" y2="268.296" gradientUnits="userSpaceOnUse">
<stop stop-color="white" stop-opacity="0.25"/>
<stop offset="0.7" stop-color="#0A0A0A" stop-opacity="0"/>
</linearGradient>
<linearGradient id="paint13_linear_2135_3046" x1="42.5202" y1="161.666" x2="268.618" y2="268.355" gradientUnits="userSpaceOnUse">
<stop stop-color="white" stop-opacity="0.25"/>
<stop offset="0.7" stop-color="#0A0A0A" stop-opacity="0"/>
</linearGradient>
<linearGradient id="paint14_linear_2135_3046" x1="52.6992" y1="142.423" x2="268.638" y2="268.412" gradientUnits="userSpaceOnUse">
<stop stop-color="white" stop-opacity="0.25"/>
<stop offset="0.7" stop-color="#0A0A0A" stop-opacity="0"/>
</linearGradient>
<linearGradient id="paint15_linear_2135_3046" x1="64.5167" y1="124.132" x2="268.653" y2="268.462" gradientUnits="userSpaceOnUse">
<stop stop-color="white" stop-opacity="0.25"/>
<stop offset="0.7" stop-color="#0A0A0A" stop-opacity="0"/>
</linearGradient>
<linearGradient id="paint16_linear_2135_3046" x1="77.884" y1="106.951" x2="268.664" y2="268.523" gradientUnits="userSpaceOnUse">
<stop stop-color="white" stop-opacity="0.25"/>
<stop offset="0.7" stop-color="#0A0A0A" stop-opacity="0"/>
</linearGradient>
<linearGradient id="paint17_linear_2135_3046" x1="92.6973" y1="91.0057" x2="268.669" y2="268.591" gradientUnits="userSpaceOnUse">
<stop stop-color="white" stop-opacity="0.25"/>
<stop offset="0.7" stop-color="#0A0A0A" stop-opacity="0"/>
</linearGradient>
<linearGradient id="paint18_linear_2135_3046" x1="108.844" y1="76.3944" x2="268.669" y2="268.641" gradientUnits="userSpaceOnUse">
<stop stop-color="white" stop-opacity="0.25"/>
<stop offset="0.7" stop-color="#0A0A0A" stop-opacity="0"/>
</linearGradient>
<linearGradient id="paint19_linear_2135_3046" x1="126.203" y1="63.2562" x2="268.664" y2="268.701" gradientUnits="userSpaceOnUse">
<stop stop-color="white" stop-opacity="0.25"/>
<stop offset="0.7" stop-color="#0A0A0A" stop-opacity="0"/>
</linearGradient>
<linearGradient id="paint20_linear_2135_3046" x1="144.641" y1="51.6755" x2="268.655" y2="268.755" gradientUnits="userSpaceOnUse">
<stop stop-color="white" stop-opacity="0.25"/>
<stop offset="0.7" stop-color="#0A0A0A" stop-opacity="0"/>
</linearGradient>
<linearGradient id="paint21_linear_2135_3046" x1="164.018" y1="41.7589" x2="268.64" y2="268.82" gradientUnits="userSpaceOnUse">
<stop stop-color="white" stop-opacity="0.25"/>
<stop offset="0.7" stop-color="#0A0A0A" stop-opacity="0"/>
</linearGradient>
<linearGradient id="paint22_linear_2135_3046" x1="184.185" y1="33.5556" x2="268.619" y2="268.872" gradientUnits="userSpaceOnUse">
<stop stop-color="white" stop-opacity="0.25"/>
<stop offset="0.7" stop-color="#0A0A0A" stop-opacity="0"/>
</linearGradient>
<linearGradient id="paint23_linear_2135_3046" x1="204.991" y1="27.1495" x2="268.595" y2="268.929" gradientUnits="userSpaceOnUse">
<stop stop-color="white" stop-opacity="0.25"/>
<stop offset="0.7" stop-color="#0A0A0A" stop-opacity="0"/>
</linearGradient>
<linearGradient id="paint24_linear_2135_3046" x1="226.276" y1="22.5727" x2="268.565" y2="268.975" gradientUnits="userSpaceOnUse">
<stop stop-color="white" stop-opacity="0.25"/>
<stop offset="0.7" stop-color="#0A0A0A" stop-opacity="0"/>
</linearGradient>
<linearGradient id="paint25_linear_2135_3046" x1="247.878" y1="19.875" x2="268.531" y2="269.026" gradientUnits="userSpaceOnUse">
<stop stop-color="white" stop-opacity="0.25"/>
<stop offset="0.7" stop-color="#0A0A0A" stop-opacity="0"/>
</linearGradient>
<linearGradient id="paint26_linear_2135_3046" x1="269.634" y1="19.0686" x2="268.494" y2="269.071" gradientUnits="userSpaceOnUse">
<stop stop-color="white" stop-opacity="0.25"/>
<stop offset="0.7" stop-color="#0A0A0A" stop-opacity="0"/>
</linearGradient>
<linearGradient id="paint27_linear_2135_3046" x1="291.379" y1="20.1587" x2="268.453" y2="269.111" gradientUnits="userSpaceOnUse">
<stop stop-color="white" stop-opacity="0.25"/>
<stop offset="0.7" stop-color="#0A0A0A" stop-opacity="0"/>
</linearGradient>
<linearGradient id="paint28_linear_2135_3046" x1="312.944" y1="23.1442" x2="268.408" y2="269.151" gradientUnits="userSpaceOnUse">
<stop stop-color="white" stop-opacity="0.25"/>
<stop offset="0.7" stop-color="#0A0A0A" stop-opacity="0"/>
</linearGradient>
<linearGradient id="paint29_linear_2135_3046" x1="334.168" y1="27.9933" x2="268.361" y2="269.182" gradientUnits="userSpaceOnUse">
<stop stop-color="white" stop-opacity="0.25"/>
<stop offset="0.7" stop-color="#0A0A0A" stop-opacity="0"/>
</linearGradient>
<linearGradient id="paint30_linear_2135_3046" x1="354.888" y1="34.676" x2="268.31" y2="269.212" gradientUnits="userSpaceOnUse">
<stop stop-color="white" stop-opacity="0.25"/>
<stop offset="0.7" stop-color="#0A0A0A" stop-opacity="0"/>
</linearGradient>
<linearGradient id="paint31_linear_2135_3046" x1="374.946" y1="43.1409" x2="268.256" y2="269.238" gradientUnits="userSpaceOnUse">
<stop stop-color="white" stop-opacity="0.25"/>
<stop offset="0.7" stop-color="#0A0A0A" stop-opacity="0"/>
</linearGradient>
<linearGradient id="paint32_linear_2135_3046" x1="394.191" y1="53.3161" x2="268.202" y2="269.255" gradientUnits="userSpaceOnUse">
<stop stop-color="white" stop-opacity="0.25"/>
<stop offset="0.7" stop-color="#0A0A0A" stop-opacity="0"/>
</linearGradient>
<linearGradient id="paint33_linear_2135_3046" x1="412.475" y1="65.1335" x2="268.145" y2="269.27" gradientUnits="userSpaceOnUse">
<stop stop-color="white" stop-opacity="0.25"/>
<stop offset="0.7" stop-color="#0A0A0A" stop-opacity="0"/>
</linearGradient>
<linearGradient id="paint34_linear_2135_3046" x1="429.658" y1="78.4989" x2="268.086" y2="269.279" gradientUnits="userSpaceOnUse">
<stop stop-color="white" stop-opacity="0.25"/>
<stop offset="0.7" stop-color="#0A0A0A" stop-opacity="0"/>
</linearGradient>
<linearGradient id="paint35_linear_2135_3046" x1="445.614" y1="93.3169" x2="268.029" y2="269.289" gradientUnits="userSpaceOnUse">
<stop stop-color="white" stop-opacity="0.25"/>
<stop offset="0.7" stop-color="#0A0A0A" stop-opacity="0"/>
</linearGradient>
<linearGradient id="paint36_linear_2135_3046" x1="460.216" y1="109.461" x2="267.97" y2="269.286" gradientUnits="userSpaceOnUse">
<stop stop-color="white" stop-opacity="0.25"/>
<stop offset="0.7" stop-color="#0A0A0A" stop-opacity="0"/>
</linearGradient>
<linearGradient id="paint37_linear_2135_3046" x1="473.356" y1="126.823" x2="267.911" y2="269.285" gradientUnits="userSpaceOnUse">
<stop stop-color="white" stop-opacity="0.25"/>
<stop offset="0.7" stop-color="#0A0A0A" stop-opacity="0"/>
</linearGradient>
<linearGradient id="paint38_linear_2135_3046" x1="484.932" y1="145.26" x2="267.853" y2="269.274" gradientUnits="userSpaceOnUse">
<stop stop-color="white" stop-opacity="0.25"/>
<stop offset="0.7" stop-color="#0A0A0A" stop-opacity="0"/>
</linearGradient>
<linearGradient id="paint39_linear_2135_3046" x1="494.858" y1="164.634" x2="267.796" y2="269.256" gradientUnits="userSpaceOnUse">
<stop stop-color="white" stop-opacity="0.25"/>
<stop offset="0.7" stop-color="#0A0A0A" stop-opacity="0"/>
</linearGradient>
<linearGradient id="paint40_linear_2135_3046" x1="503.057" y1="184.8" x2="267.741" y2="269.234" gradientUnits="userSpaceOnUse">
<stop stop-color="white" stop-opacity="0.25"/>
<stop offset="0.7" stop-color="#0A0A0A" stop-opacity="0"/>
</linearGradient>
<linearGradient id="paint41_linear_2135_3046" x1="509.467" y1="205.61" x2="267.688" y2="269.213" gradientUnits="userSpaceOnUse">
<stop stop-color="white" stop-opacity="0.25"/>
<stop offset="0.7" stop-color="#0A0A0A" stop-opacity="0"/>
</linearGradient>
<linearGradient id="paint42_linear_2135_3046" x1="514.04" y1="226.888" x2="267.637" y2="269.177" gradientUnits="userSpaceOnUse">
<stop stop-color="white" stop-opacity="0.25"/>
<stop offset="0.7" stop-color="#0A0A0A" stop-opacity="0"/>
</linearGradient>
<linearGradient id="paint43_linear_2135_3046" x1="516.74" y1="248.491" x2="267.589" y2="269.144" gradientUnits="userSpaceOnUse">
<stop stop-color="white" stop-opacity="0.25"/>
<stop offset="0.7" stop-color="#0A0A0A" stop-opacity="0"/>
</linearGradient>
<linearGradient id="paint44_linear_2135_3046" x1="517.546" y1="270.255" x2="267.543" y2="269.114" gradientUnits="userSpaceOnUse">
<stop stop-color="white" stop-opacity="0.25"/>
<stop offset="0.7" stop-color="#0A0A0A" stop-opacity="0"/>
</linearGradient>
<linearGradient id="paint45_linear_2135_3046" x1="516.454" y1="291.997" x2="267.502" y2="269.071" gradientUnits="userSpaceOnUse">
<stop stop-color="white" stop-opacity="0.25"/>
<stop offset="0.7" stop-color="#0A0A0A" stop-opacity="0"/>
</linearGradient>
<linearGradient id="paint46_linear_2135_3046" x1="513.472" y1="313.565" x2="267.465" y2="269.03" gradientUnits="userSpaceOnUse">
<stop stop-color="white" stop-opacity="0.25"/>
<stop offset="0.7" stop-color="#0A0A0A" stop-opacity="0"/>
</linearGradient>
<linearGradient id="paint47_linear_2135_3046" x1="508.619" y1="334.79" x2="267.43" y2="268.982" gradientUnits="userSpaceOnUse">
<stop stop-color="white" stop-opacity="0.25"/>
<stop offset="0.7" stop-color="#0A0A0A" stop-opacity="0"/>
</linearGradient>
<linearGradient id="paint48_linear_2135_3046" x1="501.936" y1="355.511" x2="267.4" y2="268.933" gradientUnits="userSpaceOnUse">
<stop stop-color="white" stop-opacity="0.25"/>
<stop offset="0.7" stop-color="#0A0A0A" stop-opacity="0"/>
</linearGradient>
<linearGradient id="paint49_linear_2135_3046" x1="493.473" y1="375.563" x2="267.375" y2="268.873" gradientUnits="userSpaceOnUse">
<stop stop-color="white" stop-opacity="0.25"/>
<stop offset="0.7" stop-color="#0A0A0A" stop-opacity="0"/>
</linearGradient>
<linearGradient id="paint50_linear_2135_3046" x1="483.295" y1="394.806" x2="267.356" y2="268.816" gradientUnits="userSpaceOnUse">
<stop stop-color="white" stop-opacity="0.25"/>
<stop offset="0.7" stop-color="#0A0A0A" stop-opacity="0"/>
</linearGradient>
<linearGradient id="paint51_linear_2135_3046" x1="471.476" y1="413.097" x2="267.34" y2="268.767" gradientUnits="userSpaceOnUse">
<stop stop-color="white" stop-opacity="0.25"/>
<stop offset="0.7" stop-color="#0A0A0A" stop-opacity="0"/>
</linearGradient>
<linearGradient id="paint52_linear_2135_3046" x1="458.109" y1="430.278" x2="267.329" y2="268.705" gradientUnits="userSpaceOnUse">
<stop stop-color="white" stop-opacity="0.25"/>
<stop offset="0.7" stop-color="#0A0A0A" stop-opacity="0"/>
</linearGradient>
<clipPath id="clip0_2135_3046">
<rect width="540.89" height="540.89" fill="white"/>
</clipPath>
</defs>
</svg>
