<svg width="18" height="19" viewBox="0 0 18 19" fill="none" xmlns="http://www.w3.org/2000/svg">
<path d="M9.03591 14.7506C7.52536 14.7506 6.3069 13.5305 6.3069 11.9991C6.3069 10.9304 6.91613 10.089 7.67558 9.6262C7.94264 9.46632 8.07617 9.24755 8.07617 8.88572V0.967669C8.07617 0.445969 8.51014 0 9.03591 0C9.56169 0 9.99566 0.445969 9.99566 0.967669V8.88572C9.99566 9.25596 10.1292 9.49157 10.3796 9.63461C11.1474 10.0974 11.7649 10.9304 11.7649 11.9991C11.7649 13.5305 10.5465 14.7506 9.03591 14.7506ZM12.0737 1.90168C11.7733 1.90168 11.573 1.67449 11.573 1.40522C11.573 1.13596 11.7733 0.908767 12.0737 0.908767H13.8096C14.11 0.908767 14.3103 1.13596 14.3103 1.40522C14.3103 1.67449 14.11 1.90168 13.8096 1.90168H12.0737ZM12.0737 4.11469C11.7733 4.11469 11.573 3.8875 11.573 3.61824C11.573 3.34897 11.7733 3.12178 12.0737 3.12178H13.8096C14.11 3.12178 14.3103 3.34897 14.3103 3.61824C14.3103 3.8875 14.11 4.11469 13.8096 4.11469H12.0737ZM12.0737 6.3193C11.7733 6.3193 11.573 6.10052 11.573 5.83125C11.573 5.56199 11.7733 5.3348 12.0737 5.3348H13.8096C14.11 5.3348 14.3103 5.56199 14.3103 5.83125C14.3103 6.10052 14.11 6.3193 13.8096 6.3193H12.0737ZM12.0737 8.53231C11.7733 8.53231 11.573 8.30512 11.573 8.03586C11.573 7.76659 11.7733 7.54781 12.0737 7.54781H13.8096C14.11 7.54781 14.3103 7.76659 14.3103 8.03586C14.3103 8.30512 14.11 8.53231 13.8096 8.53231H12.0737ZM0.531738 14.1784C0.531738 13.7998 0.840526 13.4885 1.21608 13.4885H1.26615C2.03395 13.4885 2.5013 13.1771 3.12722 12.7227C3.60292 12.3777 4.20381 11.9149 5.01333 11.8813C5.08009 11.8729 5.14686 11.8897 5.20528 11.9065C5.18859 12.3946 5.24701 12.8826 5.40557 13.2865C5.36384 13.2613 5.30543 13.236 5.23866 13.236C4.02855 13.236 3.79487 14.8684 1.26615 14.8684H1.21608C0.840526 14.8684 0.531738 14.5655 0.531738 14.1784ZM17.5317 14.1784C17.5317 14.5655 17.223 14.8684 16.8474 14.8684H16.7973C14.277 14.8684 14.0349 13.2528 12.8332 13.236C12.7664 13.236 12.708 13.2613 12.6579 13.2865C12.8248 12.8826 12.925 12.2431 12.8832 11.9065C12.9417 11.8897 13.0001 11.8729 13.0668 11.8813C13.868 11.9149 14.4606 12.3777 14.9363 12.7227C15.5622 13.1771 16.0295 13.4885 16.7973 13.4885H16.8474C17.223 13.4885 17.5317 13.7998 17.5317 14.1784ZM0.531738 17.7883C0.531738 17.4012 0.840526 17.0983 1.21608 17.0983H1.26615C2.03395 17.0983 2.5013 16.7785 3.12722 16.3326C3.64465 15.9455 4.32064 15.4659 5.24701 15.4659C6.19006 15.4659 6.8744 15.9707 7.39183 16.3578C7.94264 16.7785 8.35992 17.0983 9.03591 17.0983C9.70356 17.0983 10.1208 16.7785 10.6717 16.3578C11.1891 15.9707 11.8734 15.4659 12.8165 15.4659C13.7428 15.4659 14.4188 15.9455 14.9363 16.3326C15.5622 16.7785 16.0295 17.0983 16.7973 17.0983H16.8474C17.223 17.0983 17.5317 17.4012 17.5317 17.7883C17.5317 18.1669 17.223 18.4783 16.8474 18.4783H16.7973C14.2436 18.4783 14.0516 16.8458 12.8165 16.8458C11.6064 16.8458 11.2892 18.4783 9.03591 18.4783C6.7826 18.4783 6.45712 16.8458 5.24701 16.8458C4.01186 16.8458 3.81991 18.4783 1.26615 18.4783H1.21608C0.840526 18.4783 0.531738 18.1669 0.531738 17.7883Z" fill="#E7E8FF"/>
</svg>
