<svg width="51" height="92" viewBox="0 0 51 92" fill="none" xmlns="http://www.w3.org/2000/svg">
<path d="M17.4378 45.65H26.5878C27.9378 45.65 29.2378 45.55 30.4878 45.35C31.7378 45.15 32.8378 44.775 33.7878 44.225C34.7378 43.625 35.4878 42.8 36.0378 41.75C36.6378 40.7 36.9378 39.325 36.9378 37.625C36.9378 35.925 36.6378 34.55 36.0378 33.5C35.4878 32.45 34.7378 31.65 33.7878 31.1C32.8378 30.5 31.7378 30.1 30.4878 29.9C29.2378 29.7 27.9378 29.6 26.5878 29.6H17.4378V45.65ZM5.66279 20.45H29.8128C33.1628 20.45 36.0128 20.95 38.3628 21.95C40.7128 22.9 42.6128 24.175 44.0628 25.775C45.5628 27.375 46.6378 29.2 47.2878 31.25C47.9878 33.3 48.3378 35.425 48.3378 37.625C48.3378 39.775 47.9878 41.9 47.2878 44C46.6378 46.05 45.5628 47.875 44.0628 49.475C42.6128 51.075 40.7128 52.375 38.3628 53.375C36.0128 54.325 33.1628 54.8 29.8128 54.8H17.4378V74H5.66279V20.45Z" fill="url(#paint0_linear_417_536)"/>
<g filter="url(#filter0_f_417_536)">
<path d="M12.2648 74H11V24H29.2767C33.6192 24 36.9921 25.1438 39.3953 27.4314C41.7984 29.719 43 33.127 43 37.6555C43 39.8497 42.6416 41.8105 41.9249 43.5378C41.2082 45.2185 40.2174 46.6424 38.9526 47.8095C37.6877 48.93 36.17 49.7937 34.3992 50.4006C32.6706 50.9608 30.7523 51.2409 28.6443 51.2409H12.2648V74ZM12.2648 49.8403H29.2767C31.0474 49.8403 32.6917 49.5836 34.2095 49.07C35.7273 48.5098 37.0343 47.7162 38.1304 46.6891C39.2688 45.6153 40.1542 44.3315 40.7866 42.8375C41.419 41.3436 41.7352 39.6162 41.7352 37.6555C41.7352 33.6872 40.7022 30.6527 38.6364 28.5518C36.6126 26.451 33.4928 25.4006 29.2767 25.4006H12.2648V49.8403Z" stroke="white" stroke-opacity="0.93"/>
</g>
<defs>
<filter id="filter0_f_417_536" x="6.5" y="19.5" width="41" height="59" filterUnits="userSpaceOnUse" color-interpolation-filters="sRGB">
<feFlood flood-opacity="0" result="BackgroundImageFix"/>
<feBlend mode="normal" in="SourceGraphic" in2="BackgroundImageFix" result="shape"/>
<feGaussianBlur stdDeviation="2" result="effect1_foregroundBlur_417_536"/>
</filter>
<linearGradient id="paint0_linear_417_536" x1="33.6964" y1="29" x2="-14.553" y2="98.9283" gradientUnits="userSpaceOnUse">
<stop stop-color="#17C5FC"/>
<stop offset="1" stop-color="#F2FCFF"/>
</linearGradient>
</defs>
</svg>
