<svg width="55" height="92" viewBox="0 0 55 92" fill="none" xmlns="http://www.w3.org/2000/svg">
<path d="M17.387 44.675H30.287C32.987 44.675 35.012 44.075 36.362 42.875C37.712 41.675 38.387 39.725 38.387 37.025C38.387 34.425 37.712 32.55 36.362 31.4C35.012 30.2 32.987 29.6 30.287 29.6H17.387V44.675ZM5.61201 20.45H34.487C36.887 20.45 39.037 20.85 40.937 21.65C42.887 22.4 44.537 23.45 45.887 24.8C47.287 26.15 48.337 27.725 49.037 29.525C49.787 31.275 50.162 33.175 50.162 35.225C50.162 38.375 49.487 41.1 48.137 43.4C46.837 45.7 44.687 47.45 41.687 48.65V48.8C43.137 49.2 44.337 49.825 45.287 50.675C46.237 51.475 47.012 52.45 47.612 53.6C48.212 54.7 48.637 55.925 48.887 57.275C49.187 58.625 49.387 59.975 49.487 61.325C49.537 62.175 49.587 63.175 49.637 64.325C49.687 65.475 49.762 66.65 49.862 67.85C50.012 69.05 50.212 70.2 50.462 71.3C50.762 72.35 51.187 73.25 51.737 74H39.962C39.312 72.3 38.912 70.275 38.762 67.925C38.612 65.575 38.387 63.325 38.087 61.175C37.687 58.375 36.837 56.325 35.537 55.025C34.237 53.725 32.112 53.075 29.162 53.075H17.387V74H5.61201V20.45Z" fill="url(#paint0_linear_417_532)"/>
<g filter="url(#filter0_f_417_532)">
<path d="M11.3981 73H10V24H30.4117C35.6311 24 39.4524 25.0294 41.8757 27.0882C44.299 29.1013 45.5573 32.2582 45.6505 36.5588C45.7437 39.8529 44.8583 42.598 42.9942 44.7941C41.1301 46.9444 38.4505 48.4085 34.9553 49.1863V49.3235C37.0524 49.598 38.7534 50.1013 40.0583 50.8333C41.3631 51.5196 42.3651 52.4346 43.0641 53.5784C43.7631 54.7222 44.2291 56.0719 44.4621 57.6275C44.6952 59.183 44.8117 60.9444 44.8117 62.9118C44.8117 63.598 44.835 64.4673 44.8816 65.5196C44.9282 66.5261 44.9981 67.5327 45.0913 68.5392C45.1845 69.5458 45.301 70.4608 45.4408 71.2843C45.5806 72.1078 45.767 72.6797 46 73H44.4621C44.2291 72.4967 44.0427 71.8333 43.9029 71.0098C43.7631 70.1405 43.6466 69.2255 43.5534 68.2647C43.5068 67.3039 43.4602 66.3431 43.4136 65.3824C43.4136 64.3758 43.4136 63.4837 43.4136 62.7059C43.4136 60.6928 43.2505 58.9085 42.9243 57.3529C42.6447 55.7516 42.0388 54.4248 41.1068 53.3725C40.1748 52.2745 38.8466 51.451 37.1223 50.902C35.3981 50.3072 33.0913 50.0098 30.2019 50.0098H11.3981V73ZM11.3981 48.6373H30.0621C31.9262 48.6373 33.6971 48.4085 35.3748 47.951C37.099 47.4935 38.6136 46.7614 39.9184 45.7549C41.2233 44.7484 42.2718 43.4902 43.0641 41.9804C43.8563 40.4248 44.2524 38.5719 44.2524 36.4216C44.2058 32.9444 43.134 30.2451 41.0369 28.3235C38.9398 26.3562 35.5146 25.3726 30.7612 25.3726H11.3981V48.6373Z" stroke="white" stroke-opacity="0.93"/>
</g>
<defs>
<filter id="filter0_f_417_532" x="5.5" y="19.5" width="45.4821" height="58" filterUnits="userSpaceOnUse" color-interpolation-filters="sRGB">
<feFlood flood-opacity="0" result="BackgroundImageFix"/>
<feBlend mode="normal" in="SourceGraphic" in2="BackgroundImageFix" result="shape"/>
<feGaussianBlur stdDeviation="2" result="effect1_foregroundBlur_417_532"/>
</filter>
<linearGradient id="paint0_linear_417_532" x1="36.3393" y1="29" x2="-10.5194" y2="102.239" gradientUnits="userSpaceOnUse">
<stop stop-color="#17C5FC"/>
<stop offset="1" stop-color="#F2FCFF"/>
</linearGradient>
</defs>
</svg>
